<?xml version="1.0" encoding="UTF-8"?>
<svg version="1.1" xmlns="http://www.w3.org/2000/svg" width="560" height="450">
<path d="M0 0 C6.77026989 6.05025706 14.67397689 17.00986673 15.69140625 26.3046875 C15.7109375 28.26171875 15.7109375 28.26171875 15.4609375 31.19921875 C16.915 31.38484375 16.915 31.38484375 18.3984375 31.57421875 C19.4090625 31.78046875 20.4196875 31.98671875 21.4609375 32.19921875 C22.63520014 34.54774403 22.57601923 35.9369594 22.55859375 38.55078125 C22.55375977 39.82695312 22.55375977 39.82695312 22.54882812 41.12890625 C22.53625977 42.46308594 22.53625977 42.46308594 22.5234375 43.82421875 C22.51892578 44.72140625 22.51441406 45.61859375 22.50976562 46.54296875 C22.49796341 48.76178523 22.48149905 50.98046893 22.4609375 53.19921875 C20.4809375 54.18921875 20.4809375 54.18921875 18.4609375 55.19921875 C19.06164062 56.14023438 19.66234375 57.08125 20.28125 58.05078125 C21.05055404 59.30793663 21.81872419 60.56578636 22.5859375 61.82421875 C22.98425781 62.44167969 23.38257813 63.05914062 23.79296875 63.6953125 C25.78431969 67.01423074 26.55759989 68.68207496 25.8359375 72.54296875 C24.10485266 75.88710991 22.96742482 76.82711501 19.4609375 78.19921875 C17.43017578 78.30908203 17.43017578 78.30908203 15.28125 78.26953125 C14.02054687 78.24632812 12.75984375 78.223125 11.4609375 78.19921875 C11.4923584 79.19719482 11.4923584 79.19719482 11.52441406 80.21533203 C11.60794359 83.25147177 11.65971353 86.28736918 11.7109375 89.32421875 C11.74445313 90.3709375 11.77796875 91.41765625 11.8125 92.49609375 C11.89180095 98.76086847 11.67148778 102.44285639 7.4609375 107.19921875 C5.10788862 109.55226763 4.59259607 109.46128392 1.3984375 109.54296875 C0.60179687 109.57261719 -0.19484375 109.60226563 -1.015625 109.6328125 C-3.5390625 109.69921875 -3.5390625 109.69921875 -6.0625 109.765625 C-6.85914063 109.79527344 -7.65578125 109.82492188 -8.4765625 109.85546875 C-9.57291016 109.88350586 -9.57291016 109.88350586 -10.69140625 109.91210938 C-12.78451508 110.05124052 -12.78451508 110.05124052 -14.5390625 112.19921875 C-14.8690625 112.19921875 -15.1990625 112.19921875 -15.5390625 112.19921875 C-15.66023438 113.18664062 -15.78140625 114.1740625 -15.90625 115.19140625 C-16.07382812 116.47273437 -16.24140625 117.7540625 -16.4140625 119.07421875 C-16.57648438 120.35039062 -16.73890625 121.6265625 -16.90625 122.94140625 C-17.5390625 126.19921875 -17.5390625 126.19921875 -19.5390625 128.19921875 C-22.04394531 128.45318604 -22.04394531 128.45318604 -25.2421875 128.45800781 C-26.43682617 128.46431213 -27.63146484 128.47061646 -28.86230469 128.47711182 C-30.15813477 128.47306335 -31.45396484 128.46901489 -32.7890625 128.46484375 C-34.12662832 128.46619053 -35.46419367 128.46813118 -36.80175781 128.47064209 C-39.60616716 128.47359275 -42.41044919 128.46929769 -45.21484375 128.45996094 C-48.81311172 128.44856629 -52.41108136 128.45512609 -56.00933838 128.46710587 C-58.77167008 128.47432611 -61.53393083 128.47203581 -64.29626465 128.46685028 C-66.26945183 128.4648635 -68.24264176 128.47094717 -70.21582031 128.47711182 C-71.41045898 128.4708075 -72.60509766 128.46450317 -73.8359375 128.45800781 C-74.89135742 128.45641663 -75.94677734 128.45482544 -77.03417969 128.45318604 C-79.5390625 128.19921875 -79.5390625 128.19921875 -81.5390625 126.19921875 C-81.67498225 123.57018019 -81.69496855 121.03605643 -81.63671875 118.41015625 C-81.63265108 116.81250398 -81.63076937 115.21484494 -81.63085938 113.6171875 C-81.6227851 111.10143856 -81.60190628 108.58882875 -81.54272461 106.07373047 C-81.02227752 96.26703961 -81.02227752 96.26703961 -84.47094727 87.45336914 C-86.73298773 85.49237914 -89.04698869 83.85088131 -91.5390625 82.19921875 C-104.29373393 66.45894437 -104.67328666 47.5557777 -103.5390625 28.19921875 C-102.1610398 16.62282404 -95.46182698 7.28391168 -86.7890625 -0.17578125 C-63.41804091 -17.5706512 -23.5570046 -16.70735249 0 0 Z M-51.5390625 -3.80078125 C-51.83960312 2.50157238 -51.83960312 2.50157238 -49.5390625 8.19921875 C-46.73191644 9.42349805 -46.73191644 9.42349805 -43.4140625 10.07421875 C-36.85916678 11.83284931 -33.25531935 14.4829619 -28.5390625 19.19921875 C-28.2090625 19.19921875 -27.8790625 19.19921875 -27.5390625 19.19921875 C-27.00350204 11.37408538 -27.79820146 5.17578806 -31.5390625 -1.80078125 C-33.29416015 -3.96734095 -33.29416015 -3.96734095 -35.41845703 -4.02783203 C-36.53389893 -4.01212158 -36.53389893 -4.01212158 -37.671875 -3.99609375 C-38.47753906 -3.98964844 -39.28320312 -3.98320313 -40.11328125 -3.9765625 C-41.37591797 -3.95142578 -41.37591797 -3.95142578 -42.6640625 -3.92578125 C-43.51355469 -3.91675781 -44.36304688 -3.90773438 -45.23828125 -3.8984375 C-47.33866134 -3.87483772 -49.43889694 -3.83896608 -51.5390625 -3.80078125 Z M-66.5390625 -0.80078125 C-65.18976786 3.03584947 -63.46155225 5.85094444 -60.9140625 9.01171875 C-60.28242188 9.80191406 -59.65078125 10.59210938 -59 11.40625 C-58.51789063 11.99792969 -58.03578125 12.58960938 -57.5390625 13.19921875 C-55.8890625 12.86921875 -54.2390625 12.53921875 -52.5390625 12.19921875 C-52.8278125 11.39484375 -53.1165625 10.59046875 -53.4140625 9.76171875 C-54.72263429 5.61790808 -55.65124015 1.44943212 -56.5390625 -2.80078125 C-60.39551371 -3.02114989 -63.03129466 -2.40433226 -66.5390625 -0.80078125 Z M-26.5390625 -1.80078125 C-26.3225 -1.05054687 -26.1059375 -0.3003125 -25.8828125 0.47265625 C-23.04846359 10.89151288 -22.3087229 17.95464063 -26.7109375 27.890625 C-27.92419332 31.27286174 -27.36867306 33.7531441 -26.5390625 37.19921875 C-25.57860729 43.15404105 -25.64175182 48.23555391 -26.5390625 54.19921875 C-22.84925142 53.69277409 -20.53564621 53.33263908 -18.03125 50.484375 C-14.82220629 45.17119784 -13.82389075 40.04290128 -13 33.94921875 C-12.4410309 30.61435228 -11.37753868 28.03353619 -9.5390625 25.19921875 C-6.70636584 23.78287042 -4.06439812 23.85291825 -0.9140625 23.63671875 C0.86871094 23.51103516 0.86871094 23.51103516 2.6875 23.3828125 C3.60273438 23.32222656 4.51796875 23.26164062 5.4609375 23.19921875 C4.51782808 15.95561447 -0.37262793 10.01950187 -5.71875 5.2578125 C-11.96847297 0.8207316 -18.85041751 -1.80078125 -26.5390625 -1.80078125 Z M-77.7265625 3.69921875 C-78.79970703 4.3953125 -78.79970703 4.3953125 -79.89453125 5.10546875 C-80.43722656 5.46640625 -80.97992188 5.82734375 -81.5390625 6.19921875 C-80.08861979 10.30880642 -78.02795498 13.6318062 -75.5390625 17.19921875 C-72.2390625 15.21921875 -68.9390625 13.23921875 -65.5390625 11.19921875 C-67.63363714 5.95049765 -67.63363714 5.95049765 -70.5390625 1.19921875 C-73.95227485 1.19921875 -74.93379135 1.86789341 -77.7265625 3.69921875 Z M-86.5390625 10.19921875 C-94.46098692 18.38520732 -96.05832326 29.25315612 -96.5390625 40.19921875 C-96.43183144 45.96586673 -96.09190749 51.62490341 -94.5390625 57.19921875 C-82.86097472 53.55966892 -82.86097472 53.55966892 -72.5390625 47.19921875 C-71.07224487 43.94151912 -70.80693112 41.51814216 -70.6640625 37.96875 C-70.48826245 34.07368018 -69.07658995 32.08918056 -66.5390625 29.19921875 C-65.4871875 28.41546875 -64.4353125 27.63171875 -63.3515625 26.82421875 C-60.41010732 24.07886059 -60.11654645 23.61807187 -59.6640625 19.88671875 C-59.6228125 18.66984375 -59.5815625 17.45296875 -59.5390625 16.19921875 C-60.5290625 15.53921875 -61.5190625 14.87921875 -62.5390625 14.19921875 C-63.8130527 14.96482331 -65.08312762 15.73694501 -66.3515625 16.51171875 C-67.05925781 16.94097656 -67.76695312 17.37023437 -68.49609375 17.8125 C-70.58518233 19.10437718 -70.58518233 19.10437718 -72.05078125 20.9296875 C-73.5390625 22.19921875 -73.5390625 22.19921875 -75.5 22.234375 C-78.50519028 20.70875158 -79.49094564 18.52229254 -81.1640625 15.63671875 C-82.23909434 13.79414235 -83.35304983 11.97239533 -84.5390625 10.19921875 C-85.1990625 10.19921875 -85.8590625 10.19921875 -86.5390625 10.19921875 Z M-46.5390625 13.19921875 C-43.66914677 20.56117648 -40.54451726 22.87066014 -33.5390625 26.19921875 C-32.5490625 26.85921875 -31.5590625 27.51921875 -30.5390625 28.19921875 C-29.57282083 26.52093467 -29.57282083 26.52093467 -29.5390625 24.19921875 C-33.15771477 18.33450644 -38.23194972 15.72206386 -44.5390625 13.19921875 C-45.1990625 13.19921875 -45.8590625 13.19921875 -46.5390625 13.19921875 Z M-54.5390625 17.19921875 C-56.85449457 19.96909951 -56.85449457 19.96909951 -56.2265625 22.82421875 C-55.7649111 25.1342384 -55.7649111 25.1342384 -54.5390625 26.19921875 C-51.58101677 26.53262346 -51.58101677 26.53262346 -48.5390625 26.19921875 C-46.20515047 23.41807819 -46.20515047 23.41807819 -46.9140625 20.51171875 C-47.1203125 19.74859375 -47.3265625 18.98546875 -47.5390625 18.19921875 C-49.8490625 17.86921875 -52.1590625 17.53921875 -54.5390625 17.19921875 Z M-43.5390625 26.19921875 C-45.24438573 28.13931397 -45.24438573 28.13931397 -46.5390625 30.19921875 C-45.98476563 30.5859375 -45.43046875 30.97265625 -44.859375 31.37109375 C-44.13492188 31.891875 -43.41046875 32.41265625 -42.6640625 32.94921875 C-41.94476563 33.4596875 -41.22546875 33.97015625 -40.484375 34.49609375 C-37.09136444 37.46668131 -36.58221887 39.65544846 -36.2265625 44.13671875 C-36.33898817 47.91703197 -37.07486903 50.22519215 -39.5390625 53.19921875 C-43.27415805 56.38503554 -46.65366039 56.66931784 -51.390625 56.48046875 C-54.47509805 56.07668319 -56.2052193 55.25849216 -58.5390625 53.19921875 C-61.6297478 48.87225934 -61.9497541 45.41355401 -61.1953125 40.3125 C-60.18635492 37.06341635 -58.07952452 35.35861147 -55.5390625 33.19921875 C-55.2090625 32.20921875 -54.8790625 31.21921875 -54.5390625 30.19921875 C-56.5190625 29.53921875 -58.4990625 28.87921875 -60.5390625 28.19921875 C-65.19044461 33.01149773 -68.46891514 37.13858785 -68.56640625 44.171875 C-68.09285611 50.47373449 -65.72401028 55.12631957 -61.1015625 59.51171875 C-55.67632661 63.08443507 -50.9684652 64.048588 -44.5390625 63.19921875 C-38.43265009 61.34508989 -33.94352039 57.57095854 -30.5390625 52.19921875 C-28.79194192 46.83079369 -29.02124956 41.80716421 -30.7265625 36.51171875 C-33.24533189 31.90845056 -36.20144853 29.09096139 -40.5390625 26.19921875 C-41.5290625 26.19921875 -42.5190625 26.19921875 -43.5390625 26.19921875 Z M-7.36328125 28.2265625 C-9.11980453 31.17355339 -9.47501267 34.07834954 -10.0390625 37.44921875 C-10.95023962 42.85119738 -12.24149099 47.27220428 -14.5390625 52.19921875 C-9.21519727 54.86115137 -5.50719787 55.79603229 0.4609375 55.19921875 C2.4701825 53.86562881 2.4701825 53.86562881 3.4609375 52.19921875 C2.8009375 51.72484375 2.1409375 51.25046875 1.4609375 50.76171875 C-1.10497748 47.47414019 -1.05735027 45.39297622 -0.86328125 41.32421875 C-0.43402304 38.51076737 0.29492618 37.05579988 2.4609375 35.19921875 C4.6484375 34.44921875 4.6484375 34.44921875 6.4609375 34.19921875 C6.7909375 32.21921875 7.1209375 30.23921875 7.4609375 28.19921875 C5.35901053 27.9503458 3.25419786 27.72574685 1.1484375 27.51171875 C-0.60919922 27.32029297 -0.60919922 27.32029297 -2.40234375 27.125 C-5.43225504 26.95086743 -5.43225504 26.95086743 -7.36328125 28.2265625 Z M-55.5390625 37.19921875 C-58.0306529 40.93660435 -57.99699535 42.77253458 -57.5390625 47.19921875 C-55.598953 50.63172018 -54.39678446 51.90088068 -50.6640625 53.19921875 C-46.69133714 53.19921875 -44.75730591 52.53975941 -41.5390625 50.19921875 C-39.92501157 46.56760415 -39.27816754 44.34715656 -40.1640625 40.44921875 C-41.74671772 37.8594193 -42.84890359 36.61902484 -45.5390625 35.19921875 C-49.44963282 34.79186767 -52.25199995 34.96871202 -55.5390625 37.19921875 Z M3.4609375 39.19921875 C2.44553638 43.3014546 2.44553638 43.3014546 3.4609375 47.19921875 C7.0909375 47.19921875 10.7209375 47.19921875 14.4609375 47.19921875 C14.4609375 44.55921875 14.4609375 41.91921875 14.4609375 39.19921875 C10.8309375 39.19921875 7.2009375 39.19921875 3.4609375 39.19921875 Z M-78.32421875 53.84375 C-79.01966797 54.19115234 -79.71511719 54.53855469 -80.43164062 54.89648438 C-81.14771484 55.26451172 -81.86378906 55.63253906 -82.6015625 56.01171875 C-83.32150391 56.36814453 -84.04144531 56.72457031 -84.78320312 57.09179688 C-88.21555222 58.82868662 -90.90010902 60.35154021 -93.5390625 63.19921875 C-90.34667112 70.55092775 -86.4837402 76.73956705 -80.5390625 82.19921875 C-79.5490625 82.52921875 -78.5590625 82.85921875 -77.5390625 83.19921875 C-77.1471875 81.96171875 -76.7553125 80.72421875 -76.3515625 79.44921875 C-74.60385479 74.74705276 -72.02057674 72.43997587 -67.5390625 70.19921875 C-61.00324125 69.48069295 -55.58837878 70.79665342 -49.5390625 73.19921875 C-49.5390625 71.54921875 -49.5390625 69.89921875 -49.5390625 68.19921875 C-50.11914062 68.0290625 -50.69921875 67.85890625 -51.296875 67.68359375 C-59.25190426 65.21569689 -64.55287961 61.89495006 -69.5390625 55.19921875 C-69.8690625 54.20921875 -70.1990625 53.21921875 -70.5390625 52.19921875 C-74.21397959 52.19921875 -75.26280139 52.30854096 -78.32421875 53.84375 Z M1.6640625 58.2265625 C-0.5390625 59.19921875 -0.5390625 59.19921875 -3.12890625 59.46484375 C-5.79006982 59.9881102 -5.79006982 59.9881102 -7.12109375 62.71875 C-9.6971614 69.61279771 -11.0499846 75.26432084 -10.51953125 82.640625 C-10.54194952 85.57741879 -10.63573305 86.93677054 -12.5390625 89.19921875 C-15.80078125 90.21875 -15.80078125 90.21875 -19.5390625 90.19921875 C-22.55859375 88.3984375 -22.55859375 88.3984375 -25.3515625 85.88671875 C-26.28613281 85.06558594 -27.22070312 84.24445313 -28.18359375 83.3984375 C-29.65766571 82.02214809 -31.11304345 80.6252378 -32.5390625 79.19921875 C-34.5322192 79.17545949 -34.5322192 79.17545949 -36.6640625 79.57421875 C-37.9428125 79.78046875 -39.2215625 79.98671875 -40.5390625 80.19921875 C-40.93192119 82.51704105 -40.93192119 82.51704105 -40.5390625 85.19921875 C-37.78670284 88.27149196 -34.49466472 90.60123323 -31.15966797 93.01757812 C-29.58587883 94.16508331 -28.04797435 95.36130551 -26.51171875 96.55859375 C-17.72343643 102.80902405 -9.97452249 103.59825844 0.4609375 102.19921875 C1.4509375 101.53921875 2.4409375 100.87921875 3.4609375 100.19921875 C4.04867615 97.41119687 4.04867615 97.41119687 4.15625 94.1328125 C4.23230469 92.92560547 4.30835938 91.71839844 4.38671875 90.47460938 C4.45246094 89.20810547 4.51820313 87.94160156 4.5859375 86.63671875 C4.73062218 84.13519678 4.87886019 81.6338769 5.03125 79.1328125 C5.09070801 78.01962646 5.15016602 76.90644043 5.21142578 75.75952148 C5.4609375 73.19921875 5.4609375 73.19921875 6.4609375 72.19921875 C8.47405199 71.80352767 10.49690958 71.45669684 12.5234375 71.13671875 C13.62816406 70.96011719 14.73289062 70.78351563 15.87109375 70.6015625 C16.72574219 70.46878906 17.58039063 70.33601563 18.4609375 70.19921875 C15.83956642 64.45236678 12.98879861 59.65742046 8.4609375 55.19921875 C6.13104667 55.19921875 3.68160379 57.15233727 1.6640625 58.2265625 Z M-31.1640625 61.69921875 C-31.87046875 62.03308594 -32.576875 62.36695313 -33.3046875 62.7109375 C-35.05110114 63.53694395 -36.79529484 64.36764098 -38.5390625 65.19921875 C-37.5490625 66.68421875 -37.5490625 66.68421875 -36.5390625 68.19921875 C-36.9140625 71.38671875 -36.9140625 71.38671875 -37.5390625 74.19921875 C-36.023125 74.50859375 -36.023125 74.50859375 -34.4765625 74.82421875 C-29.88998593 76.09722776 -26.9017428 78.94896849 -23.5390625 82.19921875 C-23.2090625 81.20921875 -22.8790625 80.21921875 -22.5390625 79.19921875 C-22.2090625 78.53921875 -21.8790625 77.87921875 -21.5390625 77.19921875 C-20.2190625 77.19921875 -18.8990625 77.19921875 -17.5390625 77.19921875 C-16.8790625 77.85921875 -16.2190625 78.51921875 -15.5390625 79.19921875 C-15.18972656 78.00683594 -14.84039062 76.81445312 -14.48046875 75.5859375 C-14.02086205 74.01952282 -13.56122505 72.45311704 -13.1015625 70.88671875 C-12.87146484 70.10103516 -12.64136719 69.31535156 -12.40429688 68.50585938 C-12.07075195 67.36987305 -12.07075195 67.36987305 -11.73046875 66.2109375 C-11.42411499 65.16619263 -11.42411499 65.16619263 -11.11157227 64.1003418 C-10.61683638 62.45748109 -10.08162631 60.82691019 -9.5390625 59.19921875 C-10.8590625 58.86921875 -12.1790625 58.53921875 -13.5390625 58.19921875 C-13.8690625 59.84921875 -14.1990625 61.49921875 -14.5390625 63.19921875 C-16.4140625 63.82421875 -16.4140625 63.82421875 -18.5390625 64.19921875 C-20.677611 62.06067025 -20.96561313 61.06646561 -21.5390625 58.19921875 C-25.02721083 58.19921875 -28.06185722 60.21679962 -31.1640625 61.69921875 Z M-45.5390625 67.19921875 C-45.2090625 70.16921875 -44.8790625 73.13921875 -44.5390625 76.19921875 C-41.0740625 75.70421875 -41.0740625 75.70421875 -37.5390625 75.19921875 C-40.21548739 73.01431868 -40.21548739 73.01431868 -42.5390625 73.19921875 C-42.5390625 71.21921875 -42.5390625 69.23921875 -42.5390625 67.19921875 C-43.5290625 67.19921875 -44.5190625 67.19921875 -45.5390625 67.19921875 Z M-66.5390625 74.19921875 C-66.2090625 77.16921875 -65.8790625 80.13921875 -65.5390625 83.19921875 C-65.2090625 83.19921875 -64.8790625 83.19921875 -64.5390625 83.19921875 C-64.5596875 82.08546875 -64.5803125 80.97171875 -64.6015625 79.82421875 C-64.5390625 76.19921875 -64.5390625 76.19921875 -63.5390625 74.19921875 C-64.5290625 74.19921875 -65.5190625 74.19921875 -66.5390625 74.19921875 Z M-53.5390625 77.19921875 C-53.8690625 77.85921875 -54.1990625 78.51921875 -54.5390625 79.19921875 C-55.5290625 79.85921875 -56.5190625 80.51921875 -57.5390625 81.19921875 C-56.5490625 81.52921875 -55.5590625 81.85921875 -54.5390625 82.19921875 C-54.5390625 85.16921875 -54.5390625 88.13921875 -54.5390625 91.19921875 C-56.1890625 91.19921875 -57.8390625 91.19921875 -59.5390625 91.19921875 C-59.5390625 91.85921875 -59.5390625 92.51921875 -59.5390625 93.19921875 C-57.8890625 93.52921875 -56.2390625 93.85921875 -54.5390625 94.19921875 C-54.5390625 97.16921875 -54.5390625 100.13921875 -54.5390625 103.19921875 C-56.1890625 103.19921875 -57.8390625 103.19921875 -59.5390625 103.19921875 C-59.5390625 103.85921875 -59.5390625 104.51921875 -59.5390625 105.19921875 C-57.8890625 105.52921875 -56.2390625 105.85921875 -54.5390625 106.19921875 C-54.49007812 106.8025 -54.44109375 107.40578125 -54.390625 108.02734375 C-54.31585938 108.8265625 -54.24109375 109.62578125 -54.1640625 110.44921875 C-54.05964844 111.63257813 -54.05964844 111.63257813 -53.953125 112.83984375 C-53.52399137 115.28509575 -52.75305612 117.04758778 -51.5390625 119.19921875 C-49.2290625 119.19921875 -46.9190625 119.19921875 -44.5390625 119.19921875 C-46.5676456 116.82763848 -46.5676456 116.82763848 -50.5390625 116.19921875 C-50.5390625 113.22921875 -50.5390625 110.25921875 -50.5390625 107.19921875 C-48.5590625 107.19921875 -46.5790625 107.19921875 -44.5390625 107.19921875 C-44.5390625 106.53921875 -44.5390625 105.87921875 -44.5390625 105.19921875 C-46.5190625 104.86921875 -48.4990625 104.53921875 -50.5390625 104.19921875 C-50.5390625 101.22921875 -50.5390625 98.25921875 -50.5390625 95.19921875 C-48.5590625 94.86921875 -46.5790625 94.53921875 -44.5390625 94.19921875 C-44.5390625 93.86921875 -44.5390625 93.53921875 -44.5390625 93.19921875 C-47.5090625 92.70421875 -47.5090625 92.70421875 -50.5390625 92.19921875 C-50.5390625 89.22921875 -50.5390625 86.25921875 -50.5390625 83.19921875 C-48.5590625 82.86921875 -46.5790625 82.53921875 -44.5390625 82.19921875 C-47.06862778 79.10752785 -49.76360862 78.28990543 -53.5390625 77.19921875 Z M-21.5390625 83.19921875 C-20.2902198 84.78254405 -20.2902198 84.78254405 -18.5390625 86.19921875 C-17.2190625 86.19921875 -15.8990625 86.19921875 -14.5390625 86.19921875 C-14.5390625 84.54921875 -14.5390625 82.89921875 -14.5390625 81.19921875 C-17.185596 81.19921875 -19.1198788 82.18061509 -21.5390625 83.19921875 Z M-73.5390625 83.19921875 C-69.5390625 84.19921875 -69.5390625 84.19921875 -69.5390625 84.19921875 Z M-64.5390625 84.19921875 C-64.5390625 85.18921875 -64.5390625 86.17921875 -64.5390625 87.19921875 C-63.8790625 86.86921875 -63.2190625 86.53921875 -62.5390625 86.19921875 C-63.1990625 85.53921875 -63.8590625 84.87921875 -64.5390625 84.19921875 Z M-62.5390625 85.19921875 C-60.5590625 86.18921875 -60.5590625 86.18921875 -58.5390625 87.19921875 C-58.5390625 86.53921875 -58.5390625 85.87921875 -58.5390625 85.19921875 C-59.8590625 85.19921875 -61.1790625 85.19921875 -62.5390625 85.19921875 Z M-47.5390625 87.19921875 C-46.0540625 88.18921875 -46.0540625 88.18921875 -44.5390625 89.19921875 C-43.8790625 88.86921875 -43.2190625 88.53921875 -42.5390625 88.19921875 C-44.1890625 87.86921875 -45.8390625 87.53921875 -47.5390625 87.19921875 Z M-73.5390625 90.19921875 C-69.5390625 91.19921875 -69.5390625 91.19921875 -69.5390625 91.19921875 Z M-65.5390625 90.19921875 C-67.92603828 100.79142376 -67.33812915 109.5172605 -65.5390625 120.19921875 C-65.2090625 120.19921875 -64.8790625 120.19921875 -64.5390625 120.19921875 C-64.2090625 117.55921875 -63.8790625 114.91921875 -63.5390625 112.19921875 C-61.8890625 111.86921875 -60.2390625 111.53921875 -58.5390625 111.19921875 C-58.5390625 110.53921875 -58.5390625 109.87921875 -58.5390625 109.19921875 C-60.1890625 108.86921875 -61.8390625 108.53921875 -63.5390625 108.19921875 C-63.8690625 105.22921875 -64.1990625 102.25921875 -64.5390625 99.19921875 C-62.2290625 99.19921875 -59.9190625 99.19921875 -57.5390625 99.19921875 C-57.8690625 98.53921875 -58.1990625 97.87921875 -58.5390625 97.19921875 C-61.06639485 96.54366756 -61.06639485 96.54366756 -63.5390625 96.19921875 C-63.8690625 94.21921875 -64.1990625 92.23921875 -64.5390625 90.19921875 C-64.8690625 90.19921875 -65.1990625 90.19921875 -65.5390625 90.19921875 Z M-40.5390625 91.19921875 C-40.5390625 93.83921875 -40.5390625 96.47921875 -40.5390625 99.19921875 C-42.5190625 99.19921875 -44.4990625 99.19921875 -46.5390625 99.19921875 C-46.5390625 99.85921875 -46.5390625 100.51921875 -46.5390625 101.19921875 C-44.0640625 101.69421875 -44.0640625 101.69421875 -41.5390625 102.19921875 C-41.2090625 105.16921875 -40.8790625 108.13921875 -40.5390625 111.19921875 C-42.5190625 111.19921875 -44.4990625 111.19921875 -46.5390625 111.19921875 C-46.5390625 111.85921875 -46.5390625 112.51921875 -46.5390625 113.19921875 C-44.5590625 113.52921875 -42.5790625 113.85921875 -40.5390625 114.19921875 C-40.5390625 116.17921875 -40.5390625 118.15921875 -40.5390625 120.19921875 C-39.8790625 119.86921875 -39.2190625 119.53921875 -38.5390625 119.19921875 C-38.8690625 118.20921875 -39.1990625 117.21921875 -39.5390625 116.19921875 C-38.8790625 116.19921875 -38.2190625 116.19921875 -37.5390625 116.19921875 C-37.2296875 115.25046875 -36.9203125 114.30171875 -36.6015625 113.32421875 C-35.5390625 110.19921875 -35.5390625 110.19921875 -34.5390625 108.19921875 C-33.44428796 100.44797116 -33.44428796 100.44797116 -35.87890625 93.453125 C-37.68573135 92.21712594 -37.68573135 92.21712594 -40.5390625 91.19921875 Z M-30.5390625 100.19921875 C-26.5390625 101.19921875 -26.5390625 101.19921875 -26.5390625 101.19921875 Z M-29.5390625 107.19921875 C-29.5390625 107.52921875 -29.5390625 107.85921875 -29.5390625 108.19921875 C-27.2290625 108.19921875 -24.9190625 108.19921875 -22.5390625 108.19921875 C-22.5390625 107.86921875 -22.5390625 107.53921875 -22.5390625 107.19921875 C-24.8490625 107.19921875 -27.1590625 107.19921875 -29.5390625 107.19921875 Z M-31.5390625 110.19921875 C-31.5390625 110.52921875 -31.5390625 110.85921875 -31.5390625 111.19921875 C-28.8990625 111.19921875 -26.2590625 111.19921875 -23.5390625 111.19921875 C-23.5390625 110.86921875 -23.5390625 110.53921875 -23.5390625 110.19921875 C-26.1790625 110.19921875 -28.8190625 110.19921875 -31.5390625 110.19921875 Z M-33.5390625 113.19921875 C-33.5390625 113.52921875 -33.5390625 113.85921875 -33.5390625 114.19921875 C-30.5690625 114.19921875 -27.5990625 114.19921875 -24.5390625 114.19921875 C-24.5390625 113.86921875 -24.5390625 113.53921875 -24.5390625 113.19921875 C-27.5090625 113.19921875 -30.4790625 113.19921875 -33.5390625 113.19921875 Z M-60.5390625 116.19921875 C-60.5390625 116.52921875 -60.5390625 116.85921875 -60.5390625 117.19921875 C-57.5690625 117.69421875 -57.5690625 117.69421875 -54.5390625 118.19921875 C-54.5390625 117.53921875 -54.5390625 116.87921875 -54.5390625 116.19921875 C-56.5190625 116.19921875 -58.4990625 116.19921875 -60.5390625 116.19921875 Z M-53.5390625 118.19921875 C-53.5390625 118.85921875 -53.5390625 119.51921875 -53.5390625 120.19921875 C-52.8790625 119.86921875 -52.2190625 119.53921875 -51.5390625 119.19921875 C-52.1990625 118.86921875 -52.8590625 118.53921875 -53.5390625 118.19921875 Z " fill="#3A454D" transform="translate(394.5390625,125.80078125)"/>
<path d="M0 0 C4.76856773 3.14291964 6.79113129 6.120681 8.125 11.625 C8.96108546 16.68670657 8.61711281 20.02294976 6.75 24.8125 C3.7381763 28.36490744 0.8263115 31.49680352 -3.921875 32.21875 C-13.25675275 32.503061 -13.25675275 32.503061 -17.375 29.0625 C-20.44105846 26.04220361 -22.08762805 23.3265657 -22.55078125 19.0078125 C-22.59118879 8.42103627 -22.59118879 8.42103627 -19.25 3.8125 C-13.48694118 -1.51832941 -7.3462207 -2.68419603 0 0 Z M-12.625 7.6875 C-14.9215739 12.10398826 -15.16828569 15.93360818 -14.25 20.8125 C-12.3509044 24.13080353 -12.3509044 24.13080353 -9.25 25.8125 C-6.10289698 26.06579784 -6.10289698 26.06579784 -3.25 24.8125 C-0.31769561 21.7554167 0.18175279 19.49646589 0.1875 15.3125 C0.07942681 11.79307299 -0.03236278 10.17243848 -1.875 7.125 C-6.03299818 4.8271589 -8.84510965 4.70337604 -12.625 7.6875 Z " fill="#CC2829" transform="translate(521.25,280.1875)"/>
<path d="M0 0 C4.79176632 2.59426839 7.32332299 5.13403146 9.02734375 10.24609375 C9.51723228 15.81154866 9.79548916 20.65290327 7.33984375 25.74609375 C6.57671875 26.57109375 5.81359375 27.39609375 5.02734375 28.24609375 C4.36734375 29.02984375 3.70734375 29.81359375 3.02734375 30.62109375 C-1.79981115 33.23580266 -6.61102982 32.96533632 -11.97265625 32.24609375 C-17.14969176 29.79381377 -19.7040067 26.70604707 -21.66015625 21.37109375 C-22.65565599 14.60169555 -21.76950982 9.88013453 -17.97265625 4.24609375 C-12.91926886 -0.56078694 -6.73647918 -2.57453561 0 0 Z M-12.97265625 10.24609375 C-14.25047739 15.17483242 -14.17400606 18.63374177 -11.97265625 23.24609375 C-10.33815501 25.30554391 -10.33815501 25.30554391 -7.97265625 26.24609375 C-4.88270528 26.32832741 -4.88270528 26.32832741 -1.97265625 25.24609375 C0.77382819 22.34414793 1.45873757 20.27150479 1.46484375 16.30859375 C1.347033 12.84086005 1.03983392 11.2701133 -0.59765625 8.12109375 C-2.87625275 6.02381325 -2.87625275 6.02381325 -5.97265625 5.68359375 C-9.69741673 6.38198634 -10.82009499 7.13683859 -12.97265625 10.24609375 Z " fill="#CD2628" transform="translate(388.97265625,279.75390625)"/>
<path d="M0 0 C1.66482422 -0.00773437 1.66482422 -0.00773437 3.36328125 -0.015625 C6.79590828 0.25866247 9.50684627 0.94797801 12.6875 2.25 C14.75146787 4.76265653 14.70854117 5.99750599 14.4375 9.25 C13.78199955 11.87200178 13.03056681 13.92201752 11.6875 16.25 C12.15542969 16.80558594 12.62335938 17.36117188 13.10546875 17.93359375 C14.82686463 20.45405734 15.41149582 22.33403991 16 25.3125 C16.18175781 26.16972656 16.36351562 27.02695312 16.55078125 27.91015625 C16.6875 30.25 16.6875 30.25 14.6875 33.25 C12.0625 33.4375 12.0625 33.4375 9.6875 33.25 C9.48253906 32.49074219 9.27757812 31.73148437 9.06640625 30.94921875 C8.79699219 29.95535156 8.52757812 28.96148437 8.25 27.9375 C7.98316406 26.95136719 7.71632812 25.96523438 7.44140625 24.94921875 C6.90670575 23.03482474 6.31605462 21.13566385 5.6875 19.25 C3.81362784 18.44787372 3.81362784 18.44787372 1.625 18.0625 C0.52478516 17.82466797 0.52478516 17.82466797 -0.59765625 17.58203125 C-1.44650391 17.41767578 -1.44650391 17.41767578 -2.3125 17.25 C-2.30089844 18.32121094 -2.28929687 19.39242188 -2.27734375 20.49609375 C-2.26796701 21.89322743 -2.25886669 23.29036299 -2.25 24.6875 C-2.24162109 25.39455078 -2.23324219 26.10160156 -2.22460938 26.83007812 C-2.21596412 28.63693559 -2.26029989 30.44387603 -2.3125 32.25 C-3.3125 33.25 -3.3125 33.25 -5.8125 33.375 C-8.3125 33.25 -8.3125 33.25 -9.3125 32.25 C-9.55439961 27.99293347 -9.54099951 23.73021838 -9.55273438 19.46704102 C-9.56244498 17.32463839 -9.59345753 15.18319303 -9.625 13.04101562 C-9.63152936 11.68490155 -9.6367801 10.32878059 -9.640625 8.97265625 C-9.6499707 7.73265869 -9.65931641 6.49266113 -9.66894531 5.21508789 C-9.55131836 4.23660889 -9.43369141 3.25812988 -9.3125 2.25 C-5.77580969 -0.10779354 -4.18693306 -0.01931688 0 0 Z M-2.3125 7.25 C-2.3125 8.24 -2.3125 9.23 -2.3125 10.25 C0.3275 10.58 2.9675 10.91 5.6875 11.25 C5.6875 9.93 5.6875 8.61 5.6875 7.25 C3.0475 7.25 0.4075 7.25 -2.3125 7.25 Z " fill="#CD2728" transform="translate(192.3125,278.75)"/>
<path d="M0 0 C3.52999223 1.62379642 5.50728037 3.60163707 8.125 6.4375 C8.785 6.7675 9.445 7.0975 10.125 7.4375 C10.455 5.1275 10.785 2.8175 11.125 0.4375 C12.9375 -0.25 12.9375 -0.25 15.125 -0.5625 C16.74121094 0.53710938 16.74121094 0.53710938 18.125 2.4375 C18.48144531 5.20898438 18.48144531 5.20898438 18.453125 8.53125 C18.44796875 9.72621094 18.4428125 10.92117188 18.4375 12.15234375 C18.416875 13.40144531 18.39625 14.65054687 18.375 15.9375 C18.36984375 17.18660156 18.3646875 18.43570312 18.359375 19.72265625 C18.27953696 28.97388912 18.27953696 28.97388912 17.125 32.4375 C15.145 32.4375 13.165 32.4375 11.125 32.4375 C9.4263449 29.04018979 9.9601385 24.79647545 10.046875 21.0234375 C10.05262861 18.74354323 10.05262861 18.74354323 9.125 15.4375 C6.89102574 13.54638342 4.84351549 12.63956467 2.125 11.4375 C2.09994385 12.03812256 2.0748877 12.63874512 2.04907227 13.25756836 C1.9334472 15.96361437 1.81057064 18.66928283 1.6875 21.375 C1.62852539 22.79329102 1.62852539 22.79329102 1.56835938 24.24023438 C1.52646484 25.13935547 1.48457031 26.03847656 1.44140625 26.96484375 C1.40474854 27.79749756 1.36809082 28.63015137 1.33032227 29.48803711 C1.125 31.4375 1.125 31.4375 0.125 32.4375 C-2.375 32.5625 -2.375 32.5625 -4.875 32.4375 C-7.49949802 29.81300198 -6.10485959 22.42361458 -6.11523438 18.65454102 C-6.12494498 16.51213839 -6.15595753 14.37069303 -6.1875 12.22851562 C-6.19402936 10.87240155 -6.1992801 9.51628059 -6.203125 8.16015625 C-6.2124707 6.92015869 -6.22181641 5.68016113 -6.23144531 4.40258789 C-6.11381836 3.42410889 -5.99619141 2.44562988 -5.875 1.4375 C-2.875 -0.5625 -2.875 -0.5625 0 0 Z " fill="#C92829" transform="translate(316.875,279.5625)"/>
<path d="M0 0 C4.98012761 1.50912958 8.24259942 4.55661849 12 8 C12.66 5.69 13.32 3.38 14 1 C15.875 0.375 15.875 0.375 18 0 C20 2 20 2 20.24291992 4.96508789 C20.23675659 6.82508423 20.23675659 6.82508423 20.23046875 8.72265625 C20.22978142 9.71367592 20.22978142 9.71367592 20.2290802 10.72471619 C20.22605921 12.12093909 20.21817742 13.51715867 20.20581055 14.91333008 C20.18754196 17.05757498 20.18530094 19.20138849 20.18554688 21.34570312 C20.14743212 31.85256788 20.14743212 31.85256788 19 33 C16.5 33.125 16.5 33.125 14 33 C13 32 13 32 12.90234375 28.40234375 C12.9090178 26.91403133 12.92097817 25.42573568 12.9375 23.9375 C12.94201172 23.17888672 12.94652344 22.42027344 12.95117188 21.63867188 C12.9629932 19.75908129 12.98092922 17.87953101 13 16 C12.05125 15.71125 11.1025 15.4225 10.125 15.125 C7 14 7 14 5 12 C4.97494385 12.56509277 4.9498877 13.13018555 4.92407227 13.71240234 C4.80820044 16.26683742 4.68543463 18.8208955 4.5625 21.375 C4.52318359 22.26445312 4.48386719 23.15390625 4.44335938 24.0703125 C4.40146484 24.92109375 4.35957031 25.771875 4.31640625 26.6484375 C4.26141968 27.82672119 4.26141968 27.82672119 4.20532227 29.02880859 C4 31 4 31 3 33 C0.625 33.1875 0.625 33.1875 -2 33 C-5.24052508 28.13921238 -4.36884672 22.77581837 -4.375 17.0625 C-4.39949219 15.86947266 -4.42398438 14.67644531 -4.44921875 13.44726562 C-4.45308594 12.30064453 -4.45695313 11.15402344 -4.4609375 9.97265625 C-4.46915527 8.92343994 -4.47737305 7.87422363 -4.48583984 6.79321289 C-3.88780413 3.35495832 -2.64718048 2.18456324 0 0 Z " fill="#B53637" transform="translate(537,279)"/>
<path d="M0 0 C1.41152344 -0.02126953 1.41152344 -0.02126953 2.8515625 -0.04296875 C5.375 0.1875 5.375 0.1875 8.375 2.1875 C8.045 3.8375 7.715 5.4875 7.375 7.1875 C2.755 7.5175 -1.865 7.8475 -6.625 8.1875 C-2.54352873 9.55961248 -2.54352873 9.55961248 1.5703125 10.828125 C5.28307604 12.00057664 7.19022472 12.99371129 9.9375 15.875 C11.77917669 20.11886368 12.04078955 22.85988178 10.375 27.1875 C8.61174371 30.4133022 6.80422383 31.85719765 3.375 33.1875 C-2.6012264 33.89829185 -8.63373287 33.52985812 -14.625 33.1875 C-15.18676758 31.29418945 -15.18676758 31.29418945 -15.625 29.1875 C-14.63671875 27.48046875 -14.63671875 27.48046875 -12.625 26.1875 C-9.26953125 25.67578125 -9.26953125 25.67578125 -5.4375 25.5 C-3.52904297 25.40138672 -3.52904297 25.40138672 -1.58203125 25.30078125 C-0.60621094 25.26339844 0.36960937 25.22601563 1.375 25.1875 C1.705 23.5375 2.035 21.8875 2.375 20.1875 C-0.62540163 18.87482429 -3.49545696 17.98074079 -6.6875 17.3125 C-10.35791457 16.40356936 -12.49210655 15.47571074 -14.625 12.1875 C-15.19421855 8.20297016 -15.29649179 6.13256252 -12.9375 2.8125 C-8.97784205 0.03003765 -4.73516607 0.03261134 0 0 Z " fill="#C22D2E" transform="translate(267.625,278.8125)"/>
<path d="M0 0 C5.26177622 2.06344166 6.88989736 6.28005204 9.1875 11.25 C12.27946976 18.64426995 14.86311606 25.1425161 13.1875 33.25 C11.5375 33.25 9.8875 33.25 8.1875 33.25 C7.88457031 32.63511719 7.58164062 32.02023437 7.26953125 31.38671875 C4.0664458 25.00214669 4.0664458 25.00214669 -1.8125 21.25 C-3.1325 21.25 -4.4525 21.25 -5.8125 21.25 C-6.8025 25.21 -7.7925 29.17 -8.8125 33.25 C-10.7925 33.25 -12.7725 33.25 -14.8125 33.25 C-17.21189313 22.74285359 -11.29403709 11.0935465 -5.8125 2.25 C-2.8125 0.25 -2.8125 0.25 0 0 Z M-1.8125 9.25 C-2.4725 10.9 -3.1325 12.55 -3.8125 14.25 C-0.8425 14.745 -0.8425 14.745 2.1875 15.25 C1.8575 13.6 1.5275 11.95 1.1875 10.25 C0.1975 9.92 -0.7925 9.59 -1.8125 9.25 Z " fill="#D22423" transform="translate(444.8125,278.75)"/>
<path d="M0 0 C2.625 0.4375 2.625 0.4375 4.59375 2.5625 C6.7203533 5.57246159 8.2387985 8.51633489 9.75 11.875 C10.24757812 12.96683594 10.74515625 14.05867188 11.2578125 15.18359375 C13.83267177 21.31175881 14.96026593 25.84393665 14.625 32.4375 C13.625 33.4375 13.625 33.4375 11.0625 33.5 C10.258125 33.479375 9.45375 33.45875 8.625 33.4375 C8.40585938 32.82261719 8.18671875 32.20773437 7.9609375 31.57421875 C5.87583068 26.193575 5.87583068 26.193575 1.625 22.4375 C-0.70817216 21.65977595 -2.98935923 21.01334432 -5.375 20.4375 C-5.50777344 21.29214844 -5.64054688 22.14679688 -5.77734375 23.02734375 C-5.95394531 24.13207031 -6.13054687 25.23679687 -6.3125 26.375 C-6.57353516 28.02822266 -6.57353516 28.02822266 -6.83984375 29.71484375 C-7.375 32.4375 -7.375 32.4375 -8.375 33.4375 C-10.875 33.5625 -10.875 33.5625 -13.375 33.4375 C-14.375 32.4375 -14.375 32.4375 -14.8125 28.8125 C-14.77463914 24.09503691 -13.36354519 20.0790574 -11.625 15.75 C-11.37290771 15.12077637 -11.12081543 14.49155273 -10.86108398 13.84326172 C-5.44111419 1.00231051 -5.44111419 1.00231051 0 0 Z M-0.375 8.4375 C-1.365 10.4175 -2.355 12.3975 -3.375 14.4375 C-1.065 15.0975 1.245 15.7575 3.625 16.4375 C2.35525028 12.02227891 2.35525028 12.02227891 -0.375 8.4375 Z " fill="#C72C2D" transform="translate(164.375,278.5625)"/>
<path d="M0 0 C-0.33 1.65 -0.66 3.3 -1 5 C-7.435 5.495 -7.435 5.495 -14 6 C-12.63875 6.4125 -11.2775 6.825 -9.875 7.25 C-4.44697037 9.06219257 -0.2395993 11.14060104 3 16 C3.48256365 20.26264558 3.26873267 22.49132744 1.25 26.3125 C-1.01719184 29.0205347 -1.76530573 29.87100768 -5 31 C-7.92175473 31.23578158 -10.82128583 31.18813977 -13.75 31.125 C-14.54277344 31.11597656 -15.33554687 31.10695313 -16.15234375 31.09765625 C-18.10169281 31.07417012 -20.05088575 31.03830137 -22 31 C-22.625 28.625 -22.625 28.625 -23 26 C-20.06552643 23.06552643 -16.81740544 23.53841577 -12.875 23.375 C-11.74384766 23.31699219 -11.74384766 23.31699219 -10.58984375 23.2578125 C-8.72696816 23.16348969 -6.86351745 23.08065338 -5 23 C-5 21.02 -5 19.04 -5 17 C-5.96421875 16.84144531 -6.9284375 16.68289063 -7.921875 16.51953125 C-9.18515625 16.28621094 -10.4484375 16.05289062 -11.75 15.8125 C-13.00296875 15.59207031 -14.2559375 15.37164062 -15.546875 15.14453125 C-19.55555757 13.81586158 -20.86878597 12.60046006 -23 9 C-23 5.21083912 -22.88644767 2.98494185 -20.3125 0.125 C-14.39491193 -2.75382663 -5.56511561 -3.71007707 0 0 Z " fill="#CD2727" transform="translate(584,281)"/>
<path d="M0 0 C3.4797406 1.63334763 4.84785954 3.35282222 7.0625 6.4375 C7.7225 6.7675 8.3825 7.0975 9.0625 7.4375 C9.7225 5.1275 10.3825 2.8175 11.0625 0.4375 C12.9375 -0.1875 12.9375 -0.1875 15.0625 -0.5625 C17.0625 1.4375 17.0625 1.4375 17.30541992 4.40258789 C17.29925659 6.26258423 17.29925659 6.26258423 17.29296875 8.16015625 C17.29228142 9.15117592 17.29228142 9.15117592 17.2915802 10.16221619 C17.28855921 11.55843909 17.28067742 12.95465867 17.26831055 14.35083008 C17.25004196 16.49507498 17.24780094 18.63888849 17.24804688 20.78320312 C17.20993212 31.29006788 17.20993212 31.29006788 16.0625 32.4375 C14.39632885 32.47813832 12.72861905 32.480221 11.0625 32.4375 C9.3638449 29.04018979 9.8976385 24.79647545 9.984375 21.0234375 C9.99012861 18.74354323 9.99012861 18.74354323 9.0625 15.4375 C6.82852574 13.54638342 4.78101549 12.63956467 2.0625 11.4375 C2.03744385 12.03812256 2.0123877 12.63874512 1.98657227 13.25756836 C1.8709472 15.96361437 1.74807064 18.66928283 1.625 21.375 C1.56602539 22.79329102 1.56602539 22.79329102 1.50585938 24.24023438 C1.46396484 25.13935547 1.42207031 26.03847656 1.37890625 26.96484375 C1.34224854 27.79749756 1.30559082 28.63015137 1.26782227 29.48803711 C1.0625 31.4375 1.0625 31.4375 0.0625 32.4375 C-2.4375 32.5625 -2.4375 32.5625 -4.9375 32.4375 C-7.56199802 29.81300198 -6.16735959 22.42361458 -6.17773438 18.65454102 C-6.18744498 16.51213839 -6.21845753 14.37069303 -6.25 12.22851562 C-6.25652936 10.87240155 -6.2617801 9.51628059 -6.265625 8.16015625 C-6.2749707 6.92015869 -6.28431641 5.68016113 -6.29394531 4.40258789 C-6.17631836 3.42410889 -6.05869141 2.44562988 -5.9375 1.4375 C-2.9375 -0.5625 -2.9375 -0.5625 0 0 Z " fill="#B93231" transform="translate(345.9375,279.5625)"/>
<path d="M0 0 C3.53571429 0.53571429 3.53571429 0.53571429 5 2 C5.14115161 4.67058851 5.04247107 7.32432238 5 10 C7.97 10 10.94 10 14 10 C13.95875 8.72125 13.9175 7.4425 13.875 6.125 C13.8046875 3.9453125 13.8046875 3.9453125 14 2 C14.66 1.34 15.32 0.68 16 0 C18.625 0.375 18.625 0.375 21 1 C21.02465504 5.39656173 21.04283842 9.7930872 21.05493164 14.18969727 C21.05997121 15.68644918 21.06680287 17.18319616 21.07543945 18.67993164 C21.08752159 20.82699807 21.09323191 22.97399962 21.09765625 25.12109375 C21.10551147 27.06133423 21.10551147 27.06133423 21.11352539 29.04077148 C21 32 21 32 20 33 C17.5 33.125 17.5 33.125 15 33 C13.00383446 31.00383446 13.59016573 27.18298037 13.4375 24.4375 C13.39431641 23.72658203 13.35113281 23.01566406 13.30664062 22.28320312 C13.20028223 20.52238088 13.09961154 18.7612168 13 17 C10.69 17 8.38 17 6 17 C5.93941406 18.07121094 5.87882813 19.14242188 5.81640625 20.24609375 C5.73201463 21.64324391 5.64736594 23.04037857 5.5625 24.4375 C5.52318359 25.14455078 5.48386719 25.85160156 5.44335938 26.58007812 C5.11328125 31.88671875 5.11328125 31.88671875 4 33 C1.5 33.125 1.5 33.125 -1 33 C-3.43016037 30.56983963 -2.17322555 24.74224869 -2.18554688 21.34570312 C-2.18546631 20.64324463 -2.18538574 19.94078613 -2.18530273 19.21704102 C-2.18748743 17.07483 -2.20563512 14.93313529 -2.22460938 12.79101562 C-2.22754359 11.4348976 -2.2295282 10.07877712 -2.23046875 8.72265625 C-2.23457764 7.48265869 -2.23868652 6.24266113 -2.24291992 4.96508789 C-2 2 -2 2 0 0 Z " fill="#B73535" transform="translate(125,279)"/>
<path d="M0 0 C2.625 0.375 2.625 0.375 5 1 C5.2475 2.216875 5.495 3.43375 5.75 4.6875 C7.12037065 10.90381903 9.0701587 16.93879942 11 23 C13.05109388 19.92335918 13.66801893 17.81304939 14.5 14.25 C15.56512627 9.79485257 16.70225813 5.3923571 18 1 C19.8125 0.3125 19.8125 0.3125 22 0 C24.02464779 1.51122036 24.90886262 2.3870075 25.28515625 4.91796875 C24.41686269 13.76846979 21.32698623 26.44472045 15 33 C11.625 33.75 11.625 33.75 8 33 C1.87046333 27.40421512 -1.23371432 15.3561805 -2.3828125 7.32421875 C-2.4375 5.1875 -2.4375 5.1875 -2 2 C-1.34 1.34 -0.68 0.68 0 0 Z " fill="#BE3233" transform="translate(212,279)"/>
<path d="M0 0 C2 0.125 2 0.125 4 1 C6.15965433 4.39491117 6.73265213 8.02986436 7.5 11.9375 C8.33436876 16.17736297 9.2565992 20.0397749 11 24 C13.58673961 18.44463443 14.87860333 13.23226031 15.90429688 7.16601562 C16.8015702 2.1984298 16.8015702 2.1984298 19 0 C21.625 0.375 21.625 0.375 24 1 C24.93148141 12.4623963 21.62529379 22.68877629 15 32 C14 33 14 33 11.25 33.5 C8 33 8 33 5.4375 30.5 C2.994158 26.62079792 1.59454221 22.39833388 0.1875 18.0625 C-0.03172119 17.39476562 -0.25094238 16.72703125 -0.47680664 16.0390625 C-1.93117944 11.22361599 -2.36363435 7.03117972 -2 2 C-1.34 1.34 -0.68 0.68 0 0 Z " fill="#C52C2C" transform="translate(403,279)"/>
<path d="M0 0 C0.77214844 0.00064453 1.54429687 0.00128906 2.33984375 0.00195312 C5.63669339 0.02766512 8.35341999 0.13864 11.5 1.1875 C12.3125 3.125 12.3125 3.125 12.5 5.1875 C10.5 7.1875 10.5 7.1875 7.375 7.3125 C6.42625 7.27125 5.4775 7.23 4.5 7.1875 C4.51047363 7.90405762 4.52094727 8.62061523 4.53173828 9.35888672 C4.57321299 12.59338905 4.59929892 15.82783553 4.625 19.0625 C4.64175781 20.19042969 4.65851563 21.31835938 4.67578125 22.48046875 C4.68222656 23.55683594 4.68867188 24.63320313 4.6953125 25.7421875 C4.70578613 26.73718262 4.71625977 27.73217773 4.72705078 28.75732422 C4.5 31.1875 4.5 31.1875 2.5 33.1875 C-0.0625 33.375 -0.0625 33.375 -2.5 33.1875 C-3.5 32.1875 -3.5 32.1875 -3.61352539 29.77905273 C-3.60828857 28.73692627 -3.60305176 27.6947998 -3.59765625 26.62109375 C-3.59443359 25.49638672 -3.59121094 24.37167969 -3.58789062 23.21289062 C-3.57951172 22.02888672 -3.57113281 20.84488281 -3.5625 19.625 C-3.55798828 18.43712891 -3.55347656 17.24925781 -3.54882812 16.02539062 C-3.53699675 13.07937774 -3.52051287 10.13346319 -3.5 7.1875 C-5.81 7.1875 -8.12 7.1875 -10.5 7.1875 C-10.83 5.5375 -11.16 3.8875 -11.5 2.1875 C-7.64422068 -0.38301954 -4.46094577 -0.07074956 0 0 Z " fill="#C12F2E" transform="translate(471.5,278.8125)"/>
<path d="M0 0 C3.53571429 0.53571429 3.53571429 0.53571429 5 2 C5.10012401 4.20650656 5.1308118 6.41622386 5.1328125 8.625 C5.13376923 9.28709473 5.13472595 9.94918945 5.13571167 10.63134766 C5.13639326 12.03352961 5.13454042 13.4357147 5.13037109 14.83789062 C5.12502246 16.99095713 5.1303167 19.14381502 5.13671875 21.296875 C5.13605796 22.65625046 5.13477679 24.0156258 5.1328125 25.375 C5.13168457 26.62023437 5.13055664 27.86546875 5.12939453 29.1484375 C5 32 5 32 4 33 C1.5 33.125 1.5 33.125 -1 33 C-3.43016037 30.56983963 -2.17322555 24.74224869 -2.18554688 21.34570312 C-2.18546631 20.64324463 -2.18538574 19.94078613 -2.18530273 19.21704102 C-2.18748743 17.07483 -2.20563512 14.93313529 -2.22460938 12.79101562 C-2.22754359 11.4348976 -2.2295282 10.07877712 -2.23046875 8.72265625 C-2.23457764 7.48265869 -2.23868652 6.24266113 -2.24291992 4.96508789 C-2 2 -2 2 0 0 Z " fill="#D52525" transform="translate(300,279)"/>
<path d="M0 0 C3.53571429 0.53571429 3.53571429 0.53571429 5 2 C5.10012401 4.20650656 5.1308118 6.41622386 5.1328125 8.625 C5.13376923 9.28709473 5.13472595 9.94918945 5.13571167 10.63134766 C5.13639326 12.03352961 5.13454042 13.4357147 5.13037109 14.83789062 C5.12502246 16.99095713 5.1303167 19.14381502 5.13671875 21.296875 C5.13605796 22.65625046 5.13477679 24.0156258 5.1328125 25.375 C5.13168457 26.62023437 5.13055664 27.86546875 5.12939453 29.1484375 C5 32 5 32 4 33 C1.5 33.125 1.5 33.125 -1 33 C-3.43016037 30.56983963 -2.17322555 24.74224869 -2.18554688 21.34570312 C-2.18546631 20.64324463 -2.18538574 19.94078613 -2.18530273 19.21704102 C-2.18748743 17.07483 -2.20563512 14.93313529 -2.22460938 12.79101562 C-2.22754359 11.4348976 -2.2295282 10.07877712 -2.23046875 8.72265625 C-2.23457764 7.48265869 -2.23868652 6.24266113 -2.24291992 4.96508789 C-2 2 -2 2 0 0 Z " fill="#C62E2D" transform="translate(243,279)"/>
<path d="M0 0 C3.53571429 0.53571429 3.53571429 0.53571429 5 2 C5.10012401 4.20650656 5.1308118 6.41622386 5.1328125 8.625 C5.13376923 9.28709473 5.13472595 9.94918945 5.13571167 10.63134766 C5.13639326 12.03352961 5.13454042 13.4357147 5.13037109 14.83789062 C5.12502246 16.99095713 5.1303167 19.14381502 5.13671875 21.296875 C5.13605796 22.65625046 5.13477679 24.0156258 5.1328125 25.375 C5.13168457 26.62023437 5.13055664 27.86546875 5.12939453 29.1484375 C5 32 5 32 4 33 C1.5 33.125 1.5 33.125 -1 33 C-3.43016037 30.56983963 -2.17322555 24.74224869 -2.18554688 21.34570312 C-2.18546631 20.64324463 -2.18538574 19.94078613 -2.18530273 19.21704102 C-2.18748743 17.07483 -2.20563512 14.93313529 -2.22460938 12.79101562 C-2.22754359 11.4348976 -2.2295282 10.07877712 -2.23046875 8.72265625 C-2.23457764 7.48265869 -2.23868652 6.24266113 -2.24291992 4.96508789 C-2 2 -2 2 0 0 Z " fill="#C52B2B" transform="translate(489,279)"/>
<path d="M0 0 C2.625 0.375 2.625 0.375 5 1 C6.41798335 7.07707152 7.53341784 13.1255772 8.4375 19.30078125 C8.97611918 21.88540524 9.61131658 23.76492924 11 26 C13.0335948 27.26804566 13.0335948 27.26804566 15 28 C14.34 29.32 13.68 30.64 13 32 C10.75 31.9375 10.75 31.9375 8 31 C6.39140567 28.78068511 5.26633732 26.44534103 4 24 C3.34 23.67 2.68 23.34 2 23 C-0.74223129 16.18445435 -2.83336084 9.36135411 -2 2 C-1.34 1.34 -0.68 0.68 0 0 Z " fill="#D22326" transform="translate(212,279)"/>
<path d="M0 0 C3 0 3 0 4.375 1.3125 C4.91125 1.869375 5.4475 2.42625 6 3 C8.91153462 4.86636835 11.88508292 6.50022511 15 8 C14.01 8.33 13.02 8.66 12 9 C11.34 8.67 10.68 8.34 10 8 C9.67 8.66 9.34 9.32 9 10 C9.66 10 10.32 10 11 10 C11 10.66 11 11.32 11 12 C12.32 12 13.64 12 15 12 C16.50156874 15.00313748 16.09281204 17.79067522 16.0625 21.125 C16.05347656 22.40632813 16.04445313 23.68765625 16.03515625 25.0078125 C16.02355469 25.99523437 16.01195312 26.98265625 16 28 C15.34 28 14.68 28 14 28 C14.03222656 27.04738281 14.06445312 26.09476562 14.09765625 25.11328125 C14.33773135 17.88549929 14.33773135 17.88549929 10.9296875 11.95703125 C8.18513013 10.4156882 8.18513013 10.4156882 4 9 C4 15.6 4 22.2 4 29 C2.68 29.33 1.36 29.66 0 30 C0 20.1 0 10.2 0 0 Z " fill="#C82F2E" transform="translate(313,281)"/>
<path d="M0 0 C1.32 0.33 2.64 0.66 4 1 C4.02578125 1.60328125 4.0515625 2.2065625 4.078125 2.828125 C4.43375828 7.96300302 4.43375828 7.96300302 6.6875 12.5 C10.13563281 14.73662669 13.1924023 15.25105524 17.25 14.6875 C19.21717663 14.04921365 19.21717663 14.04921365 21 12 C22.125 16.75 22.125 16.75 21 19 C20.34 19 19.68 19 19 19 C19 19.99 19 20.98 19 22 C7.42452947 23.0263964 7.42452947 23.0263964 2.75 20 C-0.27043764 17.00150258 -0.37484036 14.00712527 -0.46582031 9.85546875 C-0.42393438 6.55659015 -0.24617449 3.29014155 0 0 Z " fill="#C92A2B" transform="translate(501,290)"/>
<path d="M0 0 C2.0625 0.4375 2.0625 0.4375 4 1 C4 3.64 4 6.28 4 9 C6.97 9.33 9.94 9.66 13 10 C13 10.99 13 11.98 13 13 C10.03 13 7.06 13 4 13 C4.33 18.61 4.66 24.22 5 30 C3.35 30 1.7 30 0 30 C-1.83034055 28.16965945 -1.13042797 25.26788008 -1.1328125 22.8125 C-1.13410156 21.55695313 -1.13539062 20.30140625 -1.13671875 19.0078125 C-1.13462402 18.35071289 -1.1325293 17.69361328 -1.13037109 17.01660156 C-1.12502234 15.00838665 -1.13031691 13.00039541 -1.13671875 10.9921875 C-1.13542969 9.73664063 -1.13414063 8.48109375 -1.1328125 7.1875 C-1.13112061 5.44533203 -1.13112061 5.44533203 -1.12939453 3.66796875 C-1 1 -1 1 0 0 Z " fill="#D22223" transform="translate(125,281)"/>
<path d="M0 0 C3.36621173 0.92570822 5.96645078 2.11021953 8 5 C8.1875 7.6875 8.1875 7.6875 8 10 C7.01 10 6.02 10 5 10 C5 9.34 5 8.68 5 8 C4.34 8 3.68 8 3 8 C2.67 15.92 2.34 23.84 2 32 C0.68 31.67 -0.64 31.34 -2 31 C-2.21690267 26.90733909 -2.41378687 22.81425802 -2.59204102 18.71972656 C-2.65552913 17.32656029 -2.72451436 15.93363335 -2.79907227 14.54101562 C-2.90519436 12.54107702 -2.99001904 10.54004394 -3.07421875 8.5390625 C-3.13182373 7.33459473 -3.18942871 6.13012695 -3.2487793 4.88916016 C-3.16668213 3.9357373 -3.08458496 2.98231445 -3 2 C-2.01 1.34 -1.02 0.68 0 0 Z " fill="#D22324" transform="translate(537,279)"/>
<path d="M0 0 C1.32 0.33 2.64 0.66 4 1 C4 10.9 4 20.8 4 31 C2.35 31 0.7 31 -1 31 C-1.03867187 29.12054688 -1.03867187 29.12054688 -1.078125 27.203125 C-1.13441169 25.55204877 -1.1917589 23.90100845 -1.25 22.25 C-1.26417969 21.425 -1.27835938 20.6 -1.29296875 19.75 C-1.46710812 14.6888713 -1.46710812 14.6888713 -4.046875 10.421875 C-4.69140625 9.95265625 -5.3359375 9.4834375 -6 9 C-4.68 8.67 -3.36 8.34 -2 8 C-1.855625 6.865625 -1.71125 5.73125 -1.5625 4.5625 C-1 1 -1 1 0 0 Z " fill="#CE2423" transform="translate(552,281)"/>
<path d="M0 0 C0.66 0.33 1.32 0.66 2 1 C2 1.66 2 2.32 2 3 C2.66 3.33 3.32 3.66 4 4 C4.05447047 5.41623216 4.09300508 6.83308191 4.125 8.25 C4.14820313 9.03890625 4.17140625 9.8278125 4.1953125 10.640625 C3.9808875 13.23087897 3.26953193 14.75684208 2 17 C1.7525 17.70125 1.505 18.4025 1.25 19.125 C-0.67802784 22.01704175 -2.6592624 22.25761387 -6 23 C-8.69276019 23.14529282 -11.29920701 23.09313079 -14 23 C-14 22.34 -14 21.68 -14 21 C-14.99 21.33 -15.98 21.66 -17 22 C-17.33 20.68 -17.66 19.36 -18 18 C-17.25234375 18.03480469 -16.5046875 18.06960938 -15.734375 18.10546875 C-14.25710938 18.14607422 -14.25710938 18.14607422 -12.75 18.1875 C-11.77546875 18.22230469 -10.8009375 18.25710938 -9.796875 18.29296875 C-6.51645045 17.94934886 -5.23103512 17.42211914 -3 15 C-2.30117455 12.37770518 -2.30117455 12.37770518 -2.25 9.5 C-2.19328125 8.5409375 -2.1365625 7.581875 -2.078125 6.59375 C-2.02198284 4.72983014 -2 2.86476518 -2 1 C-1.34 0.67 -0.68 0.34 0 0 Z " fill="#D32322" transform="translate(393,288)"/>
<path d="M0 0 C4.2720095 1.6411284 7.67413044 3.99433577 10 8 C11.05336511 11.16009533 11.20032888 13.5553136 11.25 16.875 C11.27578125 17.90367187 11.3015625 18.93234375 11.328125 19.9921875 C10.95911067 23.3748189 9.93550508 25.23935854 8 28 C6.66667905 25.3333581 7.32897967 23.83319697 8 21 C8.33 21 8.66 21 9 21 C9.33 18.36 9.66 15.72 10 13 C9.01 12.67 8.02 12.34 7 12 C6.67 11.67 6.34 11.34 6 11 C4.37183837 14.25632326 4.71159951 17.86842662 4.57421875 21.46875 C4 24 4 24 1.95703125 25.34375 C1.31121094 25.5603125 0.66539062 25.776875 0 26 C0.32355469 25.443125 0.64710938 24.88625 0.98046875 24.3125 C2.1315627 21.70158959 2.29950011 19.84264183 2.3125 17 C2.32925781 16.154375 2.34601563 15.30875 2.36328125 14.4375 C1.9188744 11.45567338 1.15083316 10.10260821 -1 8 C-3.0488648 7.51942285 -3.0488648 7.51942285 -5.1875 7.75 C-7.0746875 7.87375 -7.0746875 7.87375 -9 8 C-8.67 7.34 -8.34 6.68 -8 6 C-5.4375 5.375 -5.4375 5.375 -3 5 C-3 4.34 -3 3.68 -3 3 C-2.01 3.33 -1.02 3.66 0 4 C0.33 3.34 0.66 2.68 1 2 C-2.96 2 -6.92 2 -11 2 C-7.27590181 -0.48273213 -4.31511656 -0.6492469 0 0 Z " fill="#C32D30" transform="translate(387,279)"/>
<path d="M0 0 C1.42892578 -0.02126953 1.42892578 -0.02126953 2.88671875 -0.04296875 C5.3125 0.1875 5.3125 0.1875 7.3125 2.1875 C6.7265625 4.140625 6.7265625 4.140625 5.3125 6.1875 C2.2734375 6.796875 2.2734375 6.796875 -1.3125 6.9375 C-3.09527344 7.02257812 -3.09527344 7.02257812 -4.9140625 7.109375 C-5.82929688 7.13515625 -6.74453125 7.1609375 -7.6875 7.1875 C-8.0175 8.1775 -8.3475 9.1675 -8.6875 10.1875 C-7.6975 10.5175 -6.7075 10.8475 -5.6875 11.1875 C-5.6875 12.5075 -5.6875 13.8275 -5.6875 15.1875 C-7.3375 14.8575 -8.9875 14.5275 -10.6875 14.1875 C-10.6875 13.5275 -10.6875 12.8675 -10.6875 12.1875 C-11.3475 11.8575 -12.0075 11.5275 -12.6875 11.1875 C-12.6875 8.8775 -12.6875 6.5675 -12.6875 4.1875 C-12.0275 4.1875 -11.3675 4.1875 -10.6875 4.1875 C-10.6875 3.1975 -10.6875 2.2075 -10.6875 1.1875 C-7.0780118 0.36566753 -3.70055639 0.02524254 0 0 Z " fill="#D22020" transform="translate(267.6875,278.8125)"/>
<path d="M0 0 C2.31 0 4.62 0 7 0 C6.21302675 3.41021743 5.12880057 6.68885166 4 10 C5.65 10.33 7.3 10.66 9 11 C9 11.66 9 12.32 9 13 C7.35 13.66 5.7 14.32 4 15 C4.02320313 15.67546875 4.04640625 16.3509375 4.0703125 17.046875 C4.08835938 17.93890625 4.10640625 18.8309375 4.125 19.75 C4.14820313 20.63171875 4.17140625 21.5134375 4.1953125 22.421875 C3.99139502 25.1135858 3.36551721 26.69904974 2 29 C1.34 29 0.68 29 0 29 C0 19.43 0 9.86 0 0 Z " fill="#D62323" transform="translate(185,281)"/>
<path d="M0 0 C1.32 0.33 2.64 0.66 4 1 C4 10.57 4 20.14 4 30 C2.68 29.67 1.36 29.34 0 29 C-0.39074108 26.10551028 -0.76301611 23.21060558 -1.125 20.3125 C-1.29322266 19.08756836 -1.29322266 19.08756836 -1.46484375 17.83789062 C-2.02418458 13.23265109 -2.12974729 10.25949459 0 6 C0.16757757 2.79129767 0.16757757 2.79129767 0 0 Z " fill="#D22322" transform="translate(358,281)"/>
<path d="M0 0 C3.52999223 1.62379642 5.50728037 3.60163707 8.125 6.4375 C8.785 6.7675 9.445 7.0975 10.125 7.4375 C10.455 6.1175 10.785 4.7975 11.125 3.4375 C11.125 5.0875 11.125 6.7375 11.125 8.4375 C6.14625936 7.96333422 3.05781242 6.5275669 -0.875 3.4375 C-0.875 2.7775 -0.875 2.1175 -0.875 1.4375 C-1.865 1.4375 -2.855 1.4375 -3.875 1.4375 C-3.875 11.3375 -3.875 21.2375 -3.875 31.4375 C-2.885 31.1075 -1.895 30.7775 -0.875 30.4375 C-0.545 23.8375 -0.215 17.2375 0.125 10.4375 C0.455 10.4375 0.785 10.4375 1.125 10.4375 C1.15387814 13.91664941 1.17175687 17.39576831 1.1875 20.875 C1.19587891 21.86822266 1.20425781 22.86144531 1.21289062 23.88476562 C1.21611328 24.82900391 1.21933594 25.77324219 1.22265625 26.74609375 C1.22789307 27.62064209 1.23312988 28.49519043 1.23852539 29.39624023 C1.125 31.4375 1.125 31.4375 0.125 32.4375 C-2.375 32.5625 -2.375 32.5625 -4.875 32.4375 C-7.49949802 29.81300198 -6.10485959 22.42361458 -6.11523438 18.65454102 C-6.12494498 16.51213839 -6.15595753 14.37069303 -6.1875 12.22851562 C-6.19402936 10.87240155 -6.1992801 9.51628059 -6.203125 8.16015625 C-6.2124707 6.92015869 -6.22181641 5.68016113 -6.23144531 4.40258789 C-6.11381836 3.42410889 -5.99619141 2.44562988 -5.875 1.4375 C-2.875 -0.5625 -2.875 -0.5625 0 0 Z " fill="#B53232" transform="translate(316.875,279.5625)"/>
<path d="M0 0 C0.99 0 1.98 0 3 0 C5.76650185 6.01872541 5.00395518 11.94034104 4.625 18.375 C4.56828125 19.49261719 4.5115625 20.61023438 4.453125 21.76171875 C4.31226356 24.50851688 4.16091224 27.25431568 4 30 C2.68 29.67 1.36 29.34 0 29 C0 19.43 0 9.86 0 0 Z " fill="#D42121" transform="translate(341,281)"/>
<path d="M0 0 C0.165 0.639375 0.33 1.27875 0.5 1.9375 C1.97102947 4.47074403 1.97102947 4.47074403 5.9375 4.625 C6.62714844 4.65851563 7.31679688 4.69203125 8.02734375 4.7265625 C10 5 10 5 13 7 C13.66 6.01 14.32 5.02 15 4 C16.8587516 7.1241325 17.20151847 9.09317534 16.75 12.6875 C16.66234375 13.47511719 16.5746875 14.26273438 16.484375 15.07421875 C16.24460937 16.02748047 16.24460937 16.02748047 16 17 C15.34 17.33 14.68 17.66 14 18 C13.34 17.67 12.68 17.34 12 17 C12 15.35 12 13.7 12 12 C11.34 12 10.68 12 10 12 C8.66666667 10.66666667 7.33333333 9.33333333 6 8 C3.98943317 8.25942798 1.97890155 8.52311012 -0.0234375 8.83984375 C-2.52019105 9.04214987 -3.97066276 8.43744721 -6 7 C-5.34 7 -4.68 7 -4 7 C-4 5.35 -4 3.7 -4 2 C-2.68 1.34 -1.36 0.68 0 0 Z " fill="#38434C" transform="translate(361,235)"/>
<path d="M0 0 C1.2375 0.7425 1.2375 0.7425 2.5 1.5 C1.51 1.83 0.52 2.16 -0.5 2.5 C-1.16 2.17 -1.82 1.84 -2.5 1.5 C-9.15757746 0.66387106 -9.15757746 0.66387106 -15.3359375 2.6171875 C-16.8580684 4.1071347 -16.8580684 4.1071347 -18.5 6.5 C-15.68490007 8.7773501 -15.68490007 8.7773501 -12.5 8.5 C-12.83 9.16 -13.16 9.82 -13.5 10.5 C-13.57065617 12.54055005 -13.58421976 14.58334257 -13.5625 16.625 C-13.54896484 18.26855469 -13.54896484 18.26855469 -13.53515625 19.9453125 C-13.52355469 20.78835938 -13.51195312 21.63140625 -13.5 22.5 C-15.60633718 20.79171079 -16.43801608 19.97851584 -16.79296875 17.23828125 C-16.75816406 16.43777344 -16.72335937 15.63726562 -16.6875 14.8125 C-16.64689453 13.60013672 -16.64689453 13.60013672 -16.60546875 12.36328125 C-16.55326172 11.44095703 -16.55326172 11.44095703 -16.5 10.5 C-17.49 10.83 -18.48 11.16 -19.5 11.5 C-19.83 15.46 -20.16 19.42 -20.5 23.5 C-23.1618004 20.8381996 -22.79866602 19.45750737 -22.8125 15.75 C-22.72004501 10.91922681 -22.40961109 7.51325667 -19.5 3.5 C-13.63806889 -1.92228628 -7.33372047 -3.14302306 0 0 Z " fill="#B73436" transform="translate(521.5,280.5)"/>
<path d="M0 0 C1.32 0 2.64 0 4 0 C4.32098157 8.35740901 4.21819111 15.22270481 1 23 C0.01 23 -0.98 23 -2 23 C-4 20 -4 20 -3.75 17.6875 C-3 15 -3 15 -2 12.25 C-0.75075432 8.18995154 -0.35628424 4.21915543 0 0 Z " fill="#C92B2C" transform="translate(231,281)"/>
<path d="M0 0 C0.33 0 0.66 0 1 0 C1 4.29 1 8.58 1 13 C2.98 13 4.96 13 7 13 C7.33 12.01 7.66 11.02 8 10 C8.556875 11.2065625 8.556875 11.2065625 9.125 12.4375 C10.79629895 15.2982134 10.79629895 15.2982134 14.0625 15.75 C15.031875 15.8325 16.00125 15.915 17 16 C17.66 16.33 18.32 16.66 19 17 C18 18 18 18 14.6875 18.125 C11.85351237 18.02893262 9.66404901 17.85249568 7 17 C7.66 17.99 8.32 18.98 9 20 C9.66 20 10.32 20 11 20 C11 20.66 11 21.32 11 22 C15.29 21.34 19.58 20.68 24 20 C20.53795452 23.46204548 19.86369681 23.43161799 15.1875 23.4375 C9.99471518 23.29952746 6.88467216 22.6854582 3 19 C-0.82594212 13.72283845 -1.2342339 9.44143237 -1 3 C-0.67 2.01 -0.34 1.02 0 0 Z " fill="#BF2F33" transform="translate(368,289)"/>
<path d="M0 0 C3.53571429 0.53571429 3.53571429 0.53571429 5 2 C5.10012401 4.20650656 5.1308118 6.41622386 5.1328125 8.625 C5.13376923 9.28709473 5.13472595 9.94918945 5.13571167 10.63134766 C5.13639326 12.03352961 5.13454042 13.4357147 5.13037109 14.83789062 C5.12502246 16.99095713 5.1303167 19.14381502 5.13671875 21.296875 C5.13605796 22.65625046 5.13477679 24.0156258 5.1328125 25.375 C5.13168457 26.62023437 5.13055664 27.86546875 5.12939453 29.1484375 C5 32 5 32 4 33 C1.5 33.125 1.5 33.125 -1 33 C-3.43016037 30.56983963 -2.17322555 24.74224869 -2.18554688 21.34570312 C-2.18546631 20.64324463 -2.18538574 19.94078613 -2.18530273 19.21704102 C-2.18748743 17.07483 -2.20563512 14.93313529 -2.22460938 12.79101562 C-2.22754359 11.4348976 -2.2295282 10.07877712 -2.23046875 8.72265625 C-2.23457764 7.48265869 -2.23868652 6.24266113 -2.24291992 4.96508789 C-2 2 -2 2 0 0 Z M0 2 C-1.30661495 3.08108449 -1.30661495 3.08108449 -1.11352539 5.68383789 C-1.10828857 6.85164795 -1.10305176 8.01945801 -1.09765625 9.22265625 C-1.09443359 10.48271484 -1.09121094 11.74277344 -1.08789062 13.04101562 C-1.07953403 14.38151109 -1.07106907 15.72200588 -1.0625 17.0625 C-1.0574866 18.40689942 -1.05292342 19.7513006 -1.04882812 21.09570312 C-1.03699488 24.39717941 -1.02050971 27.69856803 -1 31 C0.32 31 1.64 31 3 31 C3 21.43 3 11.86 3 2 C2.01 2 1.02 2 0 2 Z " fill="#B33738" transform="translate(300,279)"/>
<path d="M0 0 C1.21236328 0.02707031 1.21236328 0.02707031 2.44921875 0.0546875 C3.37154297 0.08949219 3.37154297 0.08949219 4.3125 0.125 C3.9825 0.785 3.6525 1.445 3.3125 2.125 C0.3425 2.125 -2.6275 2.125 -5.6875 2.125 C-5.6875 11.695 -5.6875 21.265 -5.6875 31.125 C-5.0275 30.795 -4.3675 30.465 -3.6875 30.125 C-2.99412208 27.0850352 -2.99412208 27.0850352 -2.5625 23.5625 C-2.31113281 21.76619141 -2.31113281 21.76619141 -2.0546875 19.93359375 C-1.93351563 19.00675781 -1.81234375 18.07992188 -1.6875 17.125 C-1.3575 17.125 -1.0275 17.125 -0.6875 17.125 C-0.66064905 19.60423801 -0.64073453 22.0831884 -0.625 24.5625 C-0.61662109 25.26955078 -0.60824219 25.97660156 -0.59960938 26.70507812 C-0.59096412 28.51193559 -0.63529989 30.31887603 -0.6875 32.125 C-1.6875 33.125 -1.6875 33.125 -4.1875 33.25 C-6.6875 33.125 -6.6875 33.125 -7.6875 32.125 C-7.92939961 27.86793347 -7.91599951 23.60521838 -7.92773438 19.34204102 C-7.93744498 17.19963839 -7.96845753 15.05819303 -8 12.91601562 C-8.00652936 11.55990155 -8.0117801 10.20378059 -8.015625 8.84765625 C-8.0249707 7.60765869 -8.03431641 6.36766113 -8.04394531 5.09008789 C-7.92631836 4.11160889 -7.80869141 3.13312988 -7.6875 2.125 C-4.48369983 -0.01086678 -3.66810033 -0.10632175 0 0 Z " fill="#B73333" transform="translate(190.6875,278.875)"/>
<path d="M0 0 C2.0625 0.4375 2.0625 0.4375 4 1 C3.86070975 4.89609609 3.71242069 8.79179962 3.5625 12.6875 C3.50352539 14.34168945 3.50352539 14.34168945 3.44335938 16.02929688 C3.40146484 17.09599609 3.35957031 18.16269531 3.31640625 19.26171875 C3.27974854 20.24100342 3.24309082 21.22028809 3.20532227 22.22924805 C3.00780667 24.89465177 2.58426967 27.39469788 2 30 C0.68 29.67 -0.64 29.34 -2 29 C-1.67 24.71 -1.34 20.42 -1 16 C-0.01 16 0.98 16 2 16 C1.51015625 15.63132812 1.0203125 15.26265625 0.515625 14.8828125 C-1.63754294 12.20800078 -1.33157173 10.26022662 -1.25 6.875 C-1.23453125 5.79992187 -1.2190625 4.72484375 -1.203125 3.6171875 C-1 1 -1 1 0 0 Z " fill="#D62122" transform="translate(142,280)"/>
<path d="M0 0 C2 2 2 2 2.3125 5.5 C2.1578125 7.2325 2.1578125 7.2325 2 9 C-1 11 -1 11 -4.625 10.6875 C-8 10 -8 10 -9 9 C-9.3125 5.625 -9.3125 5.625 -9 2 C-6.17266771 -1.35091234 -4.03066587 -1.37891201 0 0 Z M-4 4 C-4.33 4.66 -4.66 5.32 -5 6 C-4.01 6 -3.02 6 -2 6 C-2 5.34 -2 4.68 -2 4 C-2.66 4 -3.32 4 -4 4 Z " fill="#3E474E" transform="translate(317,189)"/>
<path d="M0 0 C2 3 2 3 1.875 5.5 C1 8 1 8 -0.6875 9.9375 C-3 11 -3 11 -6.25 10.1875 C-7.61125 9.5996875 -7.61125 9.5996875 -9 9 C-10.32 2.64 -10.32 2.64 -9 0 C-5.78881337 -1.60559331 -3.38634233 -0.86197805 0 0 Z M-6 4 C-5.67 4.66 -5.34 5.32 -5 6 C-4.34 6 -3.68 6 -3 6 C-3 5.34 -3 4.68 -3 4 C-3.99 4 -4.98 4 -6 4 Z " fill="#39454C" transform="translate(313,144)"/>
<path d="M0 0 C2.875 -0.125 2.875 -0.125 6 0 C6.66 0.66 7.32 1.32 8 2 C6.25 8.75 6.25 8.75 4 11 C1.6171875 11.1953125 1.6171875 11.1953125 -1.125 11.125 C-2.49011719 11.09792969 -2.49011719 11.09792969 -3.8828125 11.0703125 C-4.58148437 11.04710937 -5.28015625 11.02390625 -6 11 C-6.33 11.99 -6.66 12.98 -7 14 C-2.38 14 2.24 14 7 14 C5 16 5 16 1.0859375 16.1953125 C-0.48449351 16.18200376 -2.05486221 16.15813602 -3.625 16.125 C-4.42679688 16.11597656 -5.22859375 16.10695313 -6.0546875 16.09765625 C-8.03658523 16.07406223 -10.01832981 16.03819065 -12 16 C-12.625 13.625 -12.625 13.625 -13 11 C-10.06552643 8.06552643 -6.81740544 8.53841577 -2.875 8.375 C-1.74384766 8.31699219 -1.74384766 8.31699219 -0.58984375 8.2578125 C1.27303184 8.16348969 3.13648255 8.08065338 5 8 C5 6.02 5 4.04 5 2 C2.525 1.505 2.525 1.505 0 1 C0 0.67 0 0.34 0 0 Z " fill="#BB3132" transform="translate(574,296)"/>
<path d="M0 0 C0.33 0.66 0.66 1.32 1 2 C1.66 2 2.32 2 3 2 C3.83211276 7.03854106 4.1078534 11.8125662 4.0625 16.9375 C4.05573242 17.96327148 4.05573242 17.96327148 4.04882812 19.00976562 C4.0371956 20.67321604 4.01926694 22.3366205 4 24 C2.68 24.33 1.36 24.66 0 25 C-3.33767893 18.32464213 -1.00060497 7.25438602 0 0 Z " fill="#D52123" transform="translate(470,286)"/>
<path d="M0 0 C0.99 0 1.98 0 3 0 C1.67691462 3.96925613 0.37870863 6.47666064 -3 9 C-5.9325814 9.48801736 -8.78761471 9.37773137 -11.75 9.25 C-12.93916016 9.22292969 -12.93916016 9.22292969 -14.15234375 9.1953125 C-16.10208348 9.14833082 -18.05119878 9.07659044 -20 9 C-20 7.68 -20 6.36 -20 5 C-18.44539062 4.90912109 -18.44539062 4.90912109 -16.859375 4.81640625 C-15.48957127 4.73196629 -14.11978025 4.64732003 -12.75 4.5625 C-12.06808594 4.52318359 -11.38617188 4.48386719 -10.68359375 4.44335938 C-5.73313097 4.25031176 -5.73313097 4.25031176 -1 3 C-0.67 2.01 -0.34 1.02 0 0 Z " fill="#D42121" transform="translate(274,302)"/>
<path d="M0 0 C0.99 0.33 1.98 0.66 3 1 C3 1.66 3 2.32 3 3 C3.804375 2.979375 4.60875 2.95875 5.4375 2.9375 C8 3 8 3 9 4 C9.20912703 5.43193921 9.36791979 6.87141054 9.5 8.3125 C9.77707425 11.30589146 10.20340984 14.09908418 11 17 C10.01 16.67 9.02 16.34 8 16 C8 15.34 8 14.68 8 14 C5.03 13.505 5.03 13.505 2 13 C2 12.34 2 11.68 2 11 C2.99 10.34 3.98 9.68 5 9 C4.67 8.34 4.34 7.68 4 7 C2.35 7 0.7 7 -1 7 C-1.625 4.625 -1.625 4.625 -2 2 C-1.34 1.34 -0.68 0.68 0 0 Z " fill="#39424A" transform="translate(332,228)"/>
<path d="M0 0 C1.88372214 3.17596839 2.20001885 5.31969081 1.9765625 8.984375 C1.925 9.91894531 1.8734375 10.85351562 1.8203125 11.81640625 C1.75585938 12.78449219 1.69140625 13.75257813 1.625 14.75 C1.56828125 15.73355469 1.5115625 16.71710938 1.453125 17.73046875 C1.31192448 20.154411 1.16054205 22.57727459 1 25 C-0.32 25.33 -1.64 25.66 -3 26 C-3.02888514 22.85418577 -3.04675923 19.70840531 -3.0625 16.5625 C-3.07087891 15.66466797 -3.07925781 14.76683594 -3.08789062 13.84179688 C-3.09111328 12.98779297 -3.09433594 12.13378906 -3.09765625 11.25390625 C-3.10551147 10.06776733 -3.10551147 10.06776733 -3.11352539 8.85766602 C-3 7 -3 7 -2 6 C-1.65657551 4.66923011 -1.32380126 3.33568021 -1 2 C-0.67 1.34 -0.34 0.68 0 0 Z " fill="#D32220" transform="translate(316,285)"/>
<path d="M0 0 C0.78503906 -0.01224609 1.57007813 -0.02449219 2.37890625 -0.03710938 C4.42063726 -0.04236254 6.46192251 0.0652982 8.5 0.1875 C9.16 0.8475 9.82 1.5075 10.5 2.1875 C9.1696875 2.620625 9.1696875 2.620625 7.8125 3.0625 C4.61219807 4.07875417 4.61219807 4.07875417 2.125 5.3125 C-1.52343543 6.52864514 -4.6628306 6.31757354 -8.5 6.1875 C-9.16 4.5375 -9.82 2.8875 -10.5 1.1875 C-7.21646451 -0.45426774 -3.60480362 0.00295961 0 0 Z " fill="#D52121" transform="translate(471.5,278.8125)"/>
<path d="M0 0 C0.99 0.33 1.98 0.66 3 1 C3.6875 3.0625 3.6875 3.0625 4 5 C5.65 5.33 7.3 5.66 9 6 C9.93423645 9.01031744 10.04449911 9.86650268 9 13 C6.125 13.125 6.125 13.125 3 13 C0.26295246 10.26295246 -0.16182449 7.73955226 -1 4 C-0.625 1.5625 -0.625 1.5625 0 0 Z " fill="#CC282B" transform="translate(408,299)"/>
<path d="M0 0 C0.33 0 0.66 0 1 0 C1 2.97 1 5.94 1 9 C1.99 8.67 2.98 8.34 4 8 C4 5.69 4 3.38 4 1 C4.66 0.67 5.32 0.34 6 0 C7.32785986 5.11955217 6.64932221 7.68289055 4.1875 12.3125 C3.37345703 13.88451172 3.37345703 13.88451172 2.54296875 15.48828125 C1 18 1 18 -1 19 C-0.67 17.68 -0.34 16.36 0 15 C-0.99 14.67 -1.98 14.34 -3 14 C-4 12 -4 12 -3.22265625 9.1796875 C-2.83980469 8.08914063 -2.45695312 6.99859375 -2.0625 5.875 C-1.68222656 4.77929688 -1.30195313 3.68359375 -0.91015625 2.5546875 C-0.60980469 1.71164062 -0.30945313 0.86859375 0 0 Z " fill="#BF2F2F" transform="translate(418,292)"/>
<path d="M0 0 C1.32 0 2.64 0 4 0 C7.32797915 6.28453206 8.45164525 10.88658735 8 18 C6.68 17.67 5.36 17.34 4 17 C4.061875 15.741875 4.12375 14.48375 4.1875 13.1875 C4.22611875 9.88800769 4.22611875 9.88800769 2.625 7.0625 C0.97750576 5.94076516 0.97750576 5.94076516 -1 5 C-0.67 3.35 -0.34 1.7 0 0 Z " fill="#D52122" transform="translate(449,293)"/>
<path d="M0 0 C1.33333333 0 2.66666667 0 4 0 C4 5.94 4 11.88 4 18 C2.68 17.67 1.36 17.34 0 17 C0 11.39 0 5.78 0 0 Z " fill="#D32120" transform="translate(535,293)"/>
<path d="M0 0 C1.22589844 0.01353516 1.22589844 0.01353516 2.4765625 0.02734375 C3.41628906 0.04474609 3.41628906 0.04474609 4.375 0.0625 C4.375 1.0525 4.375 2.0425 4.375 3.0625 C1.735 3.3925 -0.905 3.7225 -3.625 4.0625 C-3.625 5.0525 -3.625 6.0425 -3.625 7.0625 C-5.605 8.0525 -5.605 8.0525 -7.625 9.0625 C-8.615 8.0725 -9.605 7.0825 -10.625 6.0625 C-7.11585383 1.50060998 -5.76245572 -0.0823208 0 0 Z " fill="#D42120" transform="translate(512.625,280.9375)"/>
<path d="M0 0 C1.231394 3.69418201 0.64432764 6.2056261 0 10 C-0.66 10 -1.32 10 -2 10 C-2.66 13.96 -3.32 17.92 -4 22 C-2.68 22 -1.36 22 0 22 C-0.33 21.01 -0.66 20.02 -1 19 C-0.5625 16.8125 -0.5625 16.8125 0 15 C0.66 15 1.32 15 2 15 C2.125 20.75 2.125 20.75 1 23 C-0.98 23 -2.96 23 -5 23 C-6.1461375 18.16724187 -5.74238205 15.06711757 -4.1875 10.375 C-3.83042969 9.26898438 -3.47335937 8.16296875 -3.10546875 7.0234375 C-2.20585533 4.56301069 -1.24046301 2.30131146 0 0 Z " fill="#B83435" transform="translate(435,289)"/>
<path d="M0 0 C2.625 0.375 2.625 0.375 5 1 C7.29612756 10.41002278 7.29612756 10.41002278 7 15 C5.23537317 11.91190305 5 10.76687864 5 7 C3.35 7 1.7 7 0 7 C0 7.66 0 8.32 0 9 C-0.66 9 -1.32 9 -2 9 C-2.125 5.625 -2.125 5.625 -2 2 C-1.34 1.34 -0.68 0.68 0 0 Z " fill="#C52D2E" transform="translate(212,279)"/>
<path d="M0 0 C0.66 0.66 1.32 1.32 2 2 C1.625 4.625 1.625 4.625 1 7 C0.34 7 -0.32 7 -1 7 C-1 7.66 -1 8.32 -1 9 C-4.3 9 -7.6 9 -11 9 C-11 7.68 -11 6.36 -11 5 C-9.39125 4.87625 -9.39125 4.87625 -7.75 4.75 C-3.7261549 3.94523098 -2.51830747 3.12270126 0 0 Z " fill="#D32220" transform="translate(521,302)"/>
<path d="M0 0 C2.49571585 3.74357377 2.44684588 7.66043907 2 12 C1 15 1 15 0 17 C-0.66 16.34 -1.32 15.68 -2 15 C-2 14.01 -2 13.02 -2 12 C-2.66 12 -3.32 12 -4 12 C-4.33 11.01 -4.66 10.02 -5 9 C-4.01 8.67 -3.02 8.34 -2 8 C-1.7834375 6.576875 -1.7834375 6.576875 -1.5625 5.125 C-1 2 -1 2 0 0 Z " fill="#D52220" transform="translate(155,293)"/>
<path d="M0 0 C3.16616214 1.58308107 4.66428791 3.32857582 6.25 6.5 C7 9 7 9 6 12 C4.0625 12.75 4.0625 12.75 2 13 C1.34 12.67 0.68 12.34 0 12 C0 8.04 0 4.08 0 0 Z " fill="#D42222" transform="translate(369,290)"/>
<path d="M0 0 C0.165 0.639375 0.33 1.27875 0.5 1.9375 C1.781786 4.16119241 1.781786 4.16119241 3.9140625 4.48828125 C5.93575155 4.7275978 7.96841939 4.86893028 10 5 C8 8 8 8 5.7578125 8.58203125 C4.45457031 8.69611328 4.45457031 8.69611328 3.125 8.8125 C1.82949219 8.94591797 1.82949219 8.94591797 0.5078125 9.08203125 C-2.20469795 8.99330427 -3.69748626 8.38686293 -6 7 C-5.34 7 -4.68 7 -4 7 C-4 5.35 -4 3.7 -4 2 C-2.68 1.34 -1.36 0.68 0 0 Z " fill="#323B41" transform="translate(361,235)"/>
<path d="M0 0 C5.68760363 4.75630011 7.99529622 14.06884441 8.875 21.1875 C9 25 9 25 8 27 C6.35 27 4.7 27 3 27 C3 26.01 3 25.02 3 24 C4.32 24.66 5.64 25.32 7 26 C6.13391871 17.72921569 6.13391871 17.72921569 2.9375 10.1875 C0.70226393 6.51017615 0.34437084 4.21854282 0 0 Z " fill="#B2383B" transform="translate(450,285)"/>
<path d="M0 0 C4.20160979 3.08118051 4.99170437 6.48048642 5.8203125 11.38671875 C6.09477939 15.37842196 5.36598154 18.24355078 4 22 C3.34 22.33 2.68 22.66 2 23 C2.33 17.39 2.66 11.78 3 6 C2.01 5.67 1.02 5.34 0 5 C0 3.35 0 1.7 0 0 Z " fill="#BD302F" transform="translate(524,283)"/>
<path d="M0 0 C2.64 0 5.28 0 8 0 C8 0.99 8 1.98 8 3 C8.66 3 9.32 3 10 3 C10 3.66 10 4.32 10 5 C7.47524538 6.26237731 5.68799534 6.09856404 2.875 6.0625 C1.96492187 6.05347656 1.05484375 6.04445313 0.1171875 6.03515625 C-0.58148437 6.02355469 -1.28015625 6.01195312 -2 6 C-1.34 5.34 -0.68 4.68 0 4 C-0.33 3.34 -0.66 2.68 -1 2 C-0.67 1.34 -0.34 0.68 0 0 Z " fill="#D61E20" transform="translate(572,279)"/>
<path d="M0 0 C0.66 0.66 1.32 1.32 2 2 C1.67342446 5.75561867 0.8830622 8.73602552 -1 12 C-0.53207031 12.55429687 -0.06414062 13.10859375 0.41796875 13.6796875 C2.14910872 16.21869279 2.72589151 18.12478864 3.3125 21.125 C3.58513672 22.42824219 3.58513672 22.42824219 3.86328125 23.7578125 C3.93095703 24.86769531 3.93095703 24.86769531 4 26 C3.34 26.66 2.68 27.32 2 28 C1.9071875 26.2675 1.9071875 26.2675 1.8125 24.5 C1.30285147 20.14482162 -0.38744312 17.36112614 -2.94140625 13.859375 C-4 12 -4 12 -4 8 C-3.01 8 -2.02 8 -1 8 C-0.67 5.36 -0.34 2.72 0 0 Z " fill="#BB3134" transform="translate(205,283)"/>
<path d="M0 0 C1.8125 2 1.8125 2 3 4 C0.69 4 -1.62 4 -4 4 C-4.33 5.65 -4.66 7.3 -5 9 C-6.32 8.67 -7.64 8.34 -9 8 C-8.64005447 5.3364031 -8.28838998 3.41816548 -6.75 1.1875 C-4.30798538 -0.46958135 -2.88834165 -0.50545979 0 0 Z " fill="#D32224" transform="translate(167,281)"/>
<path d="M0 0 C0.33 0.66 0.66 1.32 1 2 C0.34 2 -0.32 2 -1 2 C-1 4.31 -1 6.62 -1 9 C-0.01 9.33 0.98 9.66 2 10 C2 10.66 2 11.32 2 12 C4.29629994 13.14814997 6.07698086 13.30769809 8.625 13.5625 C9.44226563 13.64628906 10.25953125 13.73007812 11.1015625 13.81640625 C11.72804688 13.87699219 12.35453125 13.93757813 13 14 C13 14.66 13 15.32 13 16 C2.20632933 15.39220107 2.20632933 15.39220107 -2 12 C-3.52491998 8.95016004 -3.23562548 6.3576631 -3 3 C-1.5 1.0625 -1.5 1.0625 0 0 Z " fill="#B73639" transform="translate(256,281)"/>
<path d="M0 0 C1.32 0.33 2.64 0.66 4 1 C4.33 4.96 4.66 8.92 5 13 C4.34 12.67 3.68 12.34 3 12 C2.01 12.33 1.02 12.66 0 13 C0 8.71 0 4.42 0 0 Z " fill="#D72123" transform="translate(501,290)"/>
<path d="M0 0 C3.3 0.66 6.6 1.32 10 2 C9.67 3.32 9.34 4.64 9 6 C8.67 5.34 8.34 4.68 8 4 C7.34 4 6.68 4 6 4 C5.34 5.32 4.68 6.64 4 8 C6.97 8.495 6.97 8.495 10 9 C10 9.33 10 9.66 10 10 C7.03 10 4.06 10 1 10 C1.66 7.69 2.32 5.38 3 3 C1.68 3 0.36 3 -1 3 C-0.67 2.01 -0.34 1.02 0 0 Z " fill="#C23133" transform="translate(437,285)"/>
<path d="M0 0 C2.31 0 4.62 0 7 0 C8.85408526 3.19022767 9.32362013 5.77298108 9.5625 9.4375 C9.9008285 14.78063382 9.9008285 14.78063382 11 20 C11.99 20.66 12.98 21.32 14 22 C12.35 22 10.7 22 9 22 C7.75928947 19.51857893 7.93651678 17.41986739 7.91186523 14.69165039 C8.01720093 8.47375714 8.01720093 8.47375714 5.37890625 3.12109375 C3.26312831 1.88425904 3.26312831 1.88425904 0 1 C0 0.67 0 0.34 0 0 Z " fill="#B93336" transform="translate(348,290)"/>
<path d="M0 0 C0.66 0 1.32 0 2 0 C1.67 1.65 1.34 3.3 1 5 C-3.62 5.33 -8.24 5.66 -13 6 C-11.02 6.66 -9.04 7.32 -7 8 C-5.65278717 8.63815344 -4.31252882 9.29325371 -3 10 C-11.57142857 10.28571429 -11.57142857 10.28571429 -15 8 C-14.67 6.68 -14.34 5.36 -14 4 C-7.565 3.505 -7.565 3.505 -1 3 C-0.67 2.01 -0.34 1.02 0 0 Z " fill="#B73335" transform="translate(274,281)"/>
<path d="M0 0 C0.598125 0.45375 1.19625 0.9075 1.8125 1.375 C3.50590652 2.63295913 5.24477086 3.82984724 7 5 C6.34 6.32 5.68 7.64 5 9 C0.125 8.125 0.125 8.125 -1 7 C-0.71269945 4.66055264 -0.38063221 2.3260857 0 0 Z " fill="#D22320" transform="translate(220,302)"/>
<path d="M0 0 C1.67542976 0.28604898 3.34385343 0.61781233 5 1 C5.38218767 2.65614657 5.71395102 4.32457024 6 6 C5 7 5 7 2.5 7.125 C0 7 0 7 -1 6 C-1.125 3.5 -1.125 3.5 -1 1 C-0.67 0.67 -0.34 0.34 0 0 Z " fill="#3D444B" transform="translate(302,168)"/>
<path d="M0 0 C0.99 0 1.98 0 3 0 C3 1.65 3 3.3 3 5 C2.01 5.495 2.01 5.495 1 6 C0.27306096 7.97888961 -0.39816251 9.97954558 -1 12 C-2.9375 11.625 -2.9375 11.625 -5 11 C-5.33 10.34 -5.66 9.68 -6 9 C-4.68 8.67 -3.36 8.34 -2 8 C-1.855625 6.865625 -1.71125 5.73125 -1.5625 4.5625 C-1 1 -1 1 0 0 Z " fill="#D82020" transform="translate(552,281)"/>
<path d="M0 0 C0.1953125 6.0546875 0.1953125 6.0546875 0 8 C-0.66 8.66 -1.32 9.32 -2 10 C-2.99 9.34 -3.98 8.68 -5 8 C-5.6875 4.375 -5.6875 4.375 -6 1 C-1.125 0 -1.125 0 0 0 Z " fill="#D52120" transform="translate(205,281)"/>
<path d="M0 0 C1.36125 0.12375 1.36125 0.12375 2.75 0.25 C3.41 2.23 4.07 4.21 4.75 6.25 C2.77 5.59 0.79 4.93 -1.25 4.25 C-1.58 4.91 -1.91 5.57 -2.25 6.25 C-4.725 5.26 -4.725 5.26 -7.25 4.25 C-4.83923194 1.28290085 -3.90322061 0.30024774 0 0 Z " fill="#D62120" transform="translate(444.25,280.75)"/>
<path d="M0 0 C1.05607181 2.74578671 0.96271597 4.18642013 0.375 7.125 C-1 10 -1 10 -3.625 11.375 C-4.40875 11.58125 -5.1925 11.7875 -6 12 C-6 11.34 -6 10.68 -6 10 C-5.34 10 -4.68 10 -4 10 C-4 7.36 -4 4.72 -4 2 C-2.68 1.34 -1.36 0.68 0 0 Z " fill="#CB272A" transform="translate(526,299)"/>
<path d="M0 0 C0.66 0 1.32 0 2 0 C2 0.66 2 1.32 2 2 C2.99 2 3.98 2 5 2 C6.4606285 4.64738916 7 5.89448334 7 9 C5.02 9 3.04 9 1 9 C0.67 6.03 0.34 3.06 0 0 Z " fill="#CB2728" transform="translate(168,286)"/>
<path d="M0 0 C0.33 0.66 0.66 1.32 1 2 C2.89533342 2.46523063 2.89533342 2.46523063 5.0625 2.625 C6.361875 2.74875 7.66125 2.8725 9 3 C8.01 3.495 8.01 3.495 7 4 C7.33 5.98 7.66 7.96 8 10 C5.69 9.34 3.38 8.68 1 8 C2.32 7.67 3.64 7.34 5 7 C4.67 6.34 4.34 5.68 4 5 C1.97536745 4.34786708 1.97536745 4.34786708 0 4 C0 2.68 0 1.36 0 0 Z " fill="#C22D31" transform="translate(189,287)"/>
<path d="M0 0 C1.43793392 0.31049726 2.8753318 0.6234776 4.3125 0.9375 C5.11300781 1.11152344 5.91351563 1.28554688 6.73828125 1.46484375 C9 2 9 2 12 3 C13.25 5.375 13.25 5.375 14 8 C13.67 8.99 13.34 9.98 13 11 C12.4225 10.05125 11.845 9.1025 11.25 8.125 C8.73996687 4.62419375 8.73996687 4.62419375 5 3 C3.68 3 2.36 3 1 3 C0.34 3.99 -0.32 4.98 -1 6 C-0.67 4.02 -0.34 2.04 0 0 Z " fill="#BD3337" transform="translate(438,297)"/>
<path d="M0 0 C1.65 0 3.3 0 5 0 C5.33 2.64 5.66 5.28 6 8 C2.942048 6.26440562 0.36620011 4.61527381 -2 2 C-1.34 2 -0.68 2 0 2 C0 1.34 0 0.68 0 0 Z " fill="#D22421" transform="translate(212,286)"/>
<path d="M0 0 C0.66 0.33 1.32 0.66 2 1 C2 2.32 2 3.64 2 5 C2.99 5.33 3.98 5.66 5 6 C4.01 7.98 3.02 9.96 2 12 C-0.79496066 9.20503934 -0.66104876 6.86404416 -1 3 C-0.67 2.01 -0.34 1.02 0 0 Z " fill="#D42425" transform="translate(404,287)"/>
<path d="M0 0 C1.32 0.66 2.64 1.32 4 2 C3.67 3.65 3.34 5.3 3 7 C2.08476563 7.06058594 1.16953125 7.12117188 0.2265625 7.18359375 C-0.96195313 7.26738281 -2.15046875 7.35117187 -3.375 7.4375 C-5.15003906 7.55931641 -5.15003906 7.55931641 -6.9609375 7.68359375 C-9.91518901 7.81084936 -9.91518901 7.81084936 -12 9 C-11.67 8.01 -11.34 7.02 -11 6 C-4.565 5.505 -4.565 5.505 2 5 C2 4.34 2 3.68 2 3 C1.34 3 0.68 3 0 3 C0 2.01 0 1.02 0 0 Z " fill="#BA3236" transform="translate(580,279)"/>
<path d="M0 0 C0.33 0.66 0.66 1.32 1 2 C1.66 2 2.32 2 3 2 C3.33 3.32 3.66 4.64 4 6 C4.66 5.67 5.32 5.34 6 5 C6 6.32 6 7.64 6 9 C4.33388095 9.042721 2.66617115 9.04063832 1 9 C0 8 0 8 -0.09765625 6.15234375 C-0.06510417 4.1015625 -0.03255208 2.05078125 0 0 Z " fill="#C12B2C" transform="translate(150,303)"/>
<path d="M0 0 C0.66 0.33 1.32 0.66 2 1 C2 4.3 2 7.6 2 11 C1.34 11 0.68 11 0 11 C-2 8 -2 8 -1.6875 5.5 C-1.17901328 3.65095738 -0.60642538 1.81927613 0 0 Z " fill="#D52123" transform="translate(229,293)"/>
<path d="M0 0 C4.875 2.75 4.875 2.75 6 5 C5.34 5 4.68 5 4 5 C4 7.64 4 10.28 4 13 C1.12420019 8.68630028 0 5.19265239 0 0 Z " fill="#C13232" transform="translate(211,289)"/>
<path d="M0 0 C3.5 1.5 3.5 1.5 6 3 C4.02 3.99 4.02 3.99 2 5 C1.67 4.01 1.34 3.02 1 2 C-2.96 2 -6.92 2 -11 2 C-7.29034259 -0.47310494 -4.30185433 -0.55899802 0 0 Z " fill="#B93335" transform="translate(387,279)"/>
<path d="M0 0 C0.66 1.32 1.32 2.64 2 4 C0 6 0 6 -3.125 6.125 C-4.548125 6.063125 -4.548125 6.063125 -6 6 C-5.34 5.01 -4.68 4.02 -4 3 C-4.33 2.34 -4.66 1.68 -5 1 C-3.35 0.67 -1.7 0.34 0 0 Z " fill="#BE2F30" transform="translate(482,280)"/>
<path d="M0 0 C0.99 0.33 1.98 0.66 3 1 C3 1.66 3 2.32 3 3 C2.34 3 1.68 3 1 3 C0.67 5.31 0.34 7.62 0 10 C-2.32472205 7.14693203 -3.7508258 4.45925163 -5 1 C-4.34 1 -3.68 1 -3 1 C-2.67 1.33 -2.34 1.66 -2 2 C-1.34 1.34 -0.68 0.68 0 0 Z " fill="#344048" transform="translate(348,190)"/>
<path d="M0 0 C2.31 0.66 4.62 1.32 7 2 C5.68 2.33 4.36 2.66 3 3 C2.34 6.96 1.68 10.92 1 15 C0.67 15 0.34 15 0 15 C0 10.05 0 5.1 0 0 Z " fill="#BA3234" transform="translate(156,296)"/>
<path d="M0 0 C0.66 0.66 1.32 1.32 2 2 C1.67 2.66 1.34 3.32 1 4 C1.66 4.33 2.32 4.66 3 5 C0.25 5.6875 0.25 5.6875 -3 6 C-5.375 4.5625 -5.375 4.5625 -7 3 C-5.68 3 -4.36 3 -3 3 C-3 2.34 -3 1.68 -3 1 C-2.01 0.67 -1.02 0.34 0 0 Z " fill="#333B42" transform="translate(350,177)"/>
<path d="M0 0 C0 2 0 2 -1 3.6875 C-4.29019407 5.84668986 -7.22237618 4.68121085 -11 4 C-7.70333541 0.70333541 -4.58106555 -1.52702185 0 0 Z " fill="#3F4A53" transform="translate(348,156)"/>
<path d="M0 0 C0.33 0 0.66 0 1 0 C1.45732667 5.71658336 0.52273754 8.48649253 -3 13 C-3.33 12.34 -3.66 11.68 -4 11 C-4.66 10.67 -5.32 10.34 -6 10 C-5.34 10 -4.68 10 -4 10 C-2.26337666 6.77484237 -1.1094072 3.48670834 0 0 Z " fill="#C02C31" transform="translate(586,297)"/>
<path d="M0 0 C2.6875 0.875 2.6875 0.875 5 2 C4.13375 2.37125 4.13375 2.37125 3.25 2.75 C0.6997003 4.16683317 -1.01785701 5.87627537 -3 8 C-3.1875 5.125 -3.1875 5.125 -3 2 C-2.01 1.34 -1.02 0.68 0 0 Z " fill="#BE2D30" transform="translate(537,279)"/>
<path d="M0 0 C0.66 0.33 1.32 0.66 2 1 C2 1.99 2 2.98 2 4 C2.66 3.34 3.32 2.68 4 2 C4 2.66 4 3.32 4 4 C4.66 4.33 5.32 4.66 6 5 C5.34 5.66 4.68 6.32 4 7 C1.375 6.625 1.375 6.625 -1 6 C-1.33 5.01 -1.66 4.02 -2 3 C-1.34 2.01 -0.68 1.02 0 0 Z " fill="#394046" transform="translate(373,202)"/>
<path d="M0 0 C2.0625 2.25 2.0625 2.25 4 5 C3.75 7.3125 3.75 7.3125 3 9 C0.525 8.01 0.525 8.01 -2 7 C-1.34 4.69 -0.68 2.38 0 0 Z " fill="#384149" transform="translate(310,191)"/>
<path d="M0 0 C1.32 0.66 2.64 1.32 4 2 C3.34 2 2.68 2 2 2 C2 2.66 2 3.32 2 4 C5.3 4 8.6 4 12 4 C12 4.33 12 4.66 12 5 C10.08458862 5.10841951 8.16740227 5.18578079 6.25 5.25 C4.64898438 5.31960938 4.64898438 5.31960938 3.015625 5.390625 C-0.63802112 4.91735478 -1.72228105 3.80844958 -4 1 C-2.68 1.33 -1.36 1.66 0 2 C0 1.34 0 0.68 0 0 Z " fill="#BC3132" transform="translate(508,307)"/>
<path d="M0 0 C2.875 1.0625 2.875 1.0625 4.25 3.625 C4.45625 4.429375 4.6625 5.23375 4.875 6.0625 C3.885 5.7325 2.895 5.4025 1.875 5.0625 C1.875 4.0725 1.875 3.0825 1.875 2.0625 C-0.105 2.0625 -2.085 2.0625 -4.125 2.0625 C-4.455 3.0525 -4.785 4.0425 -5.125 5.0625 C-5.785 4.7325 -6.445 4.4025 -7.125 4.0625 C-4.77445662 1.07911802 -3.8899141 0.07779828 0 0 Z " fill="#B63739" transform="translate(445.125,278.9375)"/>
<path d="M0 0 C0.66 0 1.32 0 2 0 C2.06058594 0.60328125 2.12117188 1.2065625 2.18359375 1.828125 C2.26738281 2.62734375 2.35117187 3.4265625 2.4375 4.25 C2.55931641 5.43335938 2.55931641 5.43335938 2.68359375 6.640625 C2.97634993 8.82364639 3.42064419 10.8773182 4 13 C3.01 12.67 2.02 12.34 1 12 C-0.26237731 9.47524538 -0.09856404 7.68799534 -0.0625 4.875 C-0.05347656 3.96492187 -0.04445313 3.05484375 -0.03515625 2.1171875 C-0.02355469 1.41851562 -0.01195312 0.71984375 0 0 Z " fill="#32383C" transform="translate(339,232)"/>
<path d="M0 0 C2.61527381 2.36620011 4.26440562 4.942048 6 8 C9.465 7.505 9.465 7.505 13 7 C12.67 7.99 12.34 8.98 12 10 C8.8125 10.5 8.8125 10.5 5 10 C2.44648935 7.23158994 0 3.86112137 0 0 Z " fill="#B8383A" transform="translate(215,302)"/>
<path d="M0 0 C4.19162145 0.95264124 5.7207791 1.63260408 8.375 5.125 C8.91125 6.07375 9.4475 7.0225 10 8 C9.401875 7.690625 8.80375 7.38125 8.1875 7.0625 C5.91043228 5.89790296 5.91043228 5.89790296 3 5 C3 4.34 3 3.68 3 3 C1.35 2.67 -0.3 2.34 -2 2 C-1.34 1.34 -0.68 0.68 0 0 Z " fill="#BB2F33" transform="translate(343,279)"/>
<path d="M0 0 C0 0.66 0 1.32 0 2 C4.29 1.34 8.58 0.68 13 0 C10 3 10 3 7.15234375 3.36328125 C6.09144531 3.34652344 5.03054688 3.32976562 3.9375 3.3125 C2.87402344 3.30863281 1.81054688 3.30476563 0.71484375 3.30078125 C-2 3 -2 3 -4 1 C-2 0 -2 0 0 0 Z " fill="#B83339" transform="translate(379,309)"/>
<path d="M0 0 C2.64 0.99 5.28 1.98 8 3 C7.01 3.66 6.02 4.32 5 5 C4.34 4.67 3.68 4.34 3 4 C2.67 4.66 2.34 5.32 2 6 C0.68 5.67 -0.64 5.34 -2 5 C-2 4.34 -2 3.68 -2 3 C-1.34 3 -0.68 3 0 3 C0 2.01 0 1.02 0 0 Z " fill="#CC2628" transform="translate(320,285)"/>
<path d="M0 0 C1.32 0 2.64 0 4 0 C4 1.98 4 3.96 4 6 C2.68 6 1.36 6 0 6 C0 4.02 0 2.04 0 0 Z " fill="#D3221F" transform="translate(231,281)"/>
<path d="M0 0 C2.31 0.66 4.62 1.32 7 2 C6.67 3.32 6.34 4.64 6 6 C4.68 5.67 3.36 5.34 2 5 C2 4.34 2 3.68 2 3 C1.34 2.67 0.68 2.34 0 2 C0 1.34 0 0.68 0 0 Z " fill="#D6201F" transform="translate(411,305)"/>
<path d="M0 0 C0.66 0.33 1.32 0.66 2 1 C2 3.66666667 2 6.33333333 2 9 C1.01 8.67 0.02 8.34 -1 8 C-1.04241723 5.66705225 -1.04092937 3.33297433 -1 1 C-0.67 0.67 -0.34 0.34 0 0 Z " fill="#39444C" transform="translate(394,166)"/>
<path d="M0 0 C0 0.66 0 1.32 0 2 C-1.75 3.6875 -1.75 3.6875 -4 5 C-6.25 4.6875 -6.25 4.6875 -8 4 C-4.5 0 -4.5 0 0 0 Z " fill="#BF1E1D" transform="translate(199,279)"/>
<path d="M0 0 C0.33 0.66 0.66 1.32 1 2 C2.65 2 4.3 2 6 2 C3.33333333 3.33333333 0.66666667 4.66666667 -2 6 C-2.66 4.35 -3.32 2.7 -4 1 C-2 0 -2 0 0 0 Z " fill="#3D4B55" transform="translate(318,175)"/>
<path d="M0 0 C1.70840281 1.63412443 2.93453047 2.86906094 4 5 C4.039992 6.99960012 4.04346799 9.00047242 4 11 C0.85041169 7.57653445 0.43820891 4.55737263 0 0 Z " fill="#BE3637" transform="translate(450,285)"/>
<path d="M0 0 C0.66 0 1.32 0 2 0 C2 0.66 2 1.32 2 2 C2.99 2.33 3.98 2.66 5 3 C4.34 4.32 3.68 5.64 3 7 C3.99 7.33 4.98 7.66 6 8 C4.68 8 3.36 8 2 8 C1.34 5.36 0.68 2.72 0 0 Z " fill="#D22729" transform="translate(344,282)"/>
<path d="M0 0 C0.33 0.66 0.66 1.32 1 2 C0.67 2.66 0.34 3.32 0 4 C1.32 4 2.64 4 4 4 C4 4.66 4 5.32 4 6 C3.01 6 2.02 6 1 6 C1 6.66 1 7.32 1 8 C0.34 8 -0.32 8 -1 8 C-1.04241723 5.66705225 -1.04092937 3.33297433 -1 1 C-0.67 0.67 -0.34 0.34 0 0 Z " fill="#C03227" transform="translate(211,280)"/>
<path d="M0 0 C0.66 0.66 1.32 1.32 2 2 C1.7578125 4.1640625 1.7578125 4.1640625 1.125 6.625 C0.92132813 7.44226563 0.71765625 8.25953125 0.5078125 9.1015625 C0.34023438 9.72804687 0.17265625 10.35453125 0 11 C-0.33 11 -0.66 11 -1 11 C-1 9.02 -1 7.04 -1 5 C-1.99 4.67 -2.98 4.34 -4 4 C-3.01 3.67 -2.02 3.34 -1 3 C-0.67 2.01 -0.34 1.02 0 0 Z " fill="#424B52" transform="translate(326,162)"/>
<path d="M0 0 C2.475 0.495 2.475 0.495 5 1 C5 1.99 5 2.98 5 4 C4.01 4 3.02 4 2 4 C1.34 4.66 0.68 5.32 0 6 C0 4.02 0 2.04 0 0 Z " fill="#C92B28" transform="translate(162,284)"/>
<path d="M0 0 C1.98 0 3.96 0 6 0 C5.67 0.99 5.34 1.98 5 3 C2.525 2.01 2.525 2.01 0 1 C0 0.67 0 0.34 0 0 Z " fill="#001717" transform="translate(338,194)"/>
<path d="M0 0 C0.33 0 0.66 0 1 0 C1 2.31 1 4.62 1 7 C0.67 7 0.34 7 0 7 C0 4.69 0 2.38 0 0 Z " fill="#363636" transform="translate(328,226)"/>
<path d="M0 0 C1 4 1 4 1 4 Z " fill="#2A2A2A" transform="translate(407,205)"/>
<path d="M0 0 C1 4 1 4 1 4 Z " fill="#202020" transform="translate(300,174)"/>
<path d="M0 0 C1 4 1 4 1 4 Z " fill="#202020" transform="translate(300,165)"/>
<path d="M0 0 C1 4 1 4 1 4 Z " fill="#202020" transform="translate(300,155)"/>
<path d="M0 0 C0.33 0.66 0.66 1.32 1 2 C0.34 1.67 -0.32 1.34 -1 1 C-0.67 0.67 -0.34 0.34 0 0 Z " fill="#000000" transform="translate(341,229)"/>
<path d="" fill="#1C4747" transform="translate(0,0)"/>
<path d="M0 0 C0.33 0.66 0.66 1.32 1 2 C0.34 1.67 -0.32 1.34 -1 1 C-0.67 0.67 -0.34 0.34 0 0 Z " fill="#000000" transform="translate(341,217)"/>
<path d="M0 0 C3 1 3 1 3 1 Z " fill="#000000" transform="translate(405,195)"/>
<path d="" fill="#2A5555" transform="translate(0,0)"/>
<path d="M0 0 C2 1 2 1 2 1 Z " fill="#000000" transform="translate(153,313)"/>
<path d="M0 0 C2 1 2 1 2 1 Z " fill="#000000" transform="translate(376,210)"/>
<path d="" fill="#000040" transform="translate(0,0)"/>
<path d="" fill="#000000" transform="translate(0,0)"/>
<path d="" fill="#000000" transform="translate(0,0)"/>
<path d="" fill="#000000" transform="translate(0,0)"/>
<path d="" fill="#000000" transform="translate(0,0)"/>
<path d="" fill="#000000" transform="translate(0,0)"/>
<path d="" fill="#000000" transform="translate(0,0)"/>
<path d="" fill="#000000" transform="translate(0,0)"/>
<path d="" fill="#000000" transform="translate(0,0)"/>
<path d="" fill="#000000" transform="translate(0,0)"/>
<path d="" fill="#000000" transform="translate(0,0)"/>
<path d="" fill="#000000" transform="translate(0,0)"/>
<path d="" fill="#008080" transform="translate(0,0)"/>
<path d="" fill="#000000" transform="translate(0,0)"/>
<path d="" fill="#000000" transform="translate(0,0)"/>
<path d="" fill="#000000" transform="translate(0,0)"/>
<path d="" fill="#000000" transform="translate(0,0)"/>
<path d="" fill="#000000" transform="translate(0,0)"/>
</svg>
